<svg width="24" height="24" viewBox="0 0 24 24" fill="none" xmlns="http://www.w3.org/2000/svg">
<g clip-path="url(#clip0_0_29)">
<path d="M22 18H2C1.46957 18 0.960859 17.7893 0.585786 17.4142C0.210714 17.0391 0 16.5304 0 16V15C0 13.9391 0.421427 12.9217 1.17157 12.1716C1.92172 11.4214 2.93913 11 4 11H20C21.0609 11 22.0783 11.4214 22.8284 12.1716C23.5786 12.9217 24 13.9391 24 15V16C24 16.5304 23.7893 17.0391 23.4142 17.4142C23.0391 17.7893 22.5304 18 22 18ZM3.058 20C2.471 23.954 8.53 23.952 7.942 20H3.058ZM16.058 20C15.471 23.954 21.53 23.952 20.942 20H16.058ZM12 9H19.825L16.437 4.141C15.9764 3.4802 15.363 2.94044 14.649 2.56767C13.935 2.1949 13.1415 2.00016 12.336 2H12V9ZM10 2H8.5C7.48602 2.00344 6.49682 2.31361 5.66242 2.88975C4.82802 3.46588 4.18748 4.28102 3.825 5.228L2.3 9.249C2.85165 9.08427 3.42428 9.0004 4 9H10V2Z" fill="#0F91E7"/>
</g>
<defs>
<clipPath id="clip0_0_29">
<rect width="24" height="24" fill="white"/>
</clipPath>
</defs>
</svg>
