<svg width="14" height="14" viewBox="0 0 14 14" fill="none" xmlns="http://www.w3.org/2000/svg">
<g clip-path="url(#clip0_106_18788)">
<path d="M12.7912 5.33697L1.999 1.98455C2.17107 1.8102 2.28389 1.5861 2.32148 1.34404C2.35906 1.10198 2.31949 0.854223 2.20839 0.635903C2.09728 0.417584 1.92028 0.239776 1.70246 0.127686C1.48465 0.0155955 1.23707 -0.0250894 0.994843 0.0113987C0.752611 0.0478868 0.52801 0.159696 0.35288 0.330977C0.17775 0.502258 0.0609774 0.724319 0.0191156 0.96568C-0.0227462 1.20704 0.0124273 1.45546 0.11965 1.67571C0.226872 1.89596 0.400703 2.07687 0.616499 2.1928C0.598831 2.23833 0.587259 2.28599 0.582083 2.33455V13.4179C0.582083 13.5726 0.643541 13.721 0.752937 13.8304C0.862333 13.9398 1.01071 14.0012 1.16542 14.0012C1.32013 14.0012 1.4685 13.9398 1.57789 13.8304C1.68729 13.721 1.74875 13.5726 1.74875 13.4179V12.0972L12.8023 8.66138C13.1521 8.54514 13.4562 8.32145 13.6713 8.0222C13.8864 7.72295 14.0016 7.36342 14.0004 6.99487C13.9991 6.62632 13.8816 6.26757 13.6645 5.96976C13.4474 5.67195 13.1418 5.45029 12.7912 5.33638V5.33697Z" fill="#E4151A"/>
</g>
<defs>
<clipPath id="clip0_106_18788">
<rect width="14" height="14" fill="white"/>
</clipPath>
</defs>
</svg>
