<svg width="121" height="24" viewBox="0 0 121 24" fill="none" xmlns="http://www.w3.org/2000/svg">
<path d="M3.36193 23.2471C2.60008 23.2471 2.01324 23.0309 1.60143 22.5985C1.2102 22.1455 1.01459 21.5175 1.01459 20.7144V10.1514C1.01459 9.32776 1.2102 8.69975 1.60143 8.26734C2.01324 7.81435 2.60008 7.58785 3.36193 7.58785C4.1032 7.58785 4.66944 7.81435 5.06067 8.26734C5.47248 8.69975 5.67839 9.32776 5.67839 10.1514V20.7144C5.67839 21.5175 5.48278 22.1455 5.09155 22.5985C4.70033 23.0309 4.12379 23.2471 3.36193 23.2471ZM3.36193 5.05519C2.49712 5.05519 1.82792 4.85958 1.35434 4.46835C0.901342 4.05654 0.674844 3.48 0.674844 2.73873C0.674844 1.97688 0.901342 1.40034 1.35434 1.00911C1.82792 0.597298 2.49712 0.391391 3.36193 0.391391C4.22674 0.391391 4.88565 0.597298 5.33864 1.00911C5.79164 1.40034 6.01814 1.97688 6.01814 2.73873C6.01814 3.48 5.79164 4.05654 5.33864 4.46835C4.88565 4.85958 4.22674 5.05519 3.36193 5.05519ZM12.1823 23C11.3793 23 10.7616 22.7838 10.3292 22.3514C9.89675 21.919 9.68055 21.3013 9.68055 20.4982V3.72709C9.68055 2.92405 9.89675 2.30633 10.3292 1.87392C10.7616 1.44152 11.3793 1.22532 12.1823 1.22532H19.6568C21.2011 1.22532 22.5189 1.45181 23.6102 1.90481C24.7015 2.35781 25.5251 3.00641 26.0811 3.85063C26.6576 4.69485 26.9459 5.7038 26.9459 6.87747C26.9459 8.17468 26.5752 9.27629 25.834 10.1823C25.0927 11.0883 24.0735 11.6957 22.7762 12.0046V11.5104C24.2794 11.7781 25.4427 12.3752 26.2664 13.3018C27.1106 14.2078 27.5327 15.3917 27.5327 16.8537C27.5327 18.7892 26.8635 20.3026 25.5251 21.3939C24.1867 22.4646 22.3438 23 19.9965 23H12.1823ZM14.2517 19.4481H19.3479C20.5833 19.4481 21.4893 19.2113 22.0659 18.7377C22.6424 18.2435 22.9307 17.5229 22.9307 16.5757C22.9307 15.6285 22.6424 14.9181 22.0659 14.4446C21.4893 13.971 20.5833 13.7342 19.3479 13.7342H14.2517V19.4481ZM14.2517 10.1823H18.8228C20.0171 10.1823 20.9025 9.95578 21.479 9.50278C22.0556 9.04979 22.3438 8.37029 22.3438 7.4643C22.3438 6.5789 22.0556 5.9097 21.479 5.45671C20.9025 5.00371 20.0171 4.77721 18.8228 4.77721H14.2517V10.1823ZM38.0436 23.3397C36.417 23.3397 34.9962 23.0206 33.7813 22.3823C32.5871 21.744 31.6605 20.8277 31.0016 19.6334C30.3427 18.4392 30.0132 17.0287 30.0132 15.402C30.0132 14.1872 30.1986 13.0959 30.5692 12.1281C30.9398 11.1603 31.4752 10.3367 32.1753 9.65721C32.8959 8.95713 33.7505 8.43207 34.7388 8.08202C35.7272 7.71139 36.8288 7.52607 38.0436 7.52607C39.6703 7.52607 41.0807 7.84523 42.275 8.48354C43.4899 9.12186 44.4267 10.0278 45.0856 11.2015C45.7651 12.3752 46.1049 13.7754 46.1049 15.402C46.1049 16.6375 45.9093 17.7391 45.518 18.7068C45.1474 19.6746 44.6121 20.5085 43.912 21.2086C43.2119 21.9087 42.3574 22.4441 41.3484 22.8147C40.3601 23.1647 39.2585 23.3397 38.0436 23.3397ZM38.0436 19.8496C38.7231 19.8496 39.3099 19.6849 39.8041 19.3554C40.2983 19.026 40.6895 18.5421 40.9778 17.9038C41.2661 17.2449 41.4102 16.411 41.4102 15.402C41.4102 13.8989 41.1013 12.7973 40.4836 12.0972C39.8659 11.3765 39.0526 11.0162 38.0436 11.0162C37.3847 11.0162 36.7979 11.1706 36.2831 11.4795C35.7889 11.7884 35.3977 12.2722 35.1094 12.9311C34.8418 13.5695 34.7079 14.3931 34.7079 15.402C34.7079 16.9051 35.0168 18.0273 35.6345 18.7686C36.2522 19.4893 37.0553 19.8496 38.0436 19.8496ZM50.1261 23.2162C49.5496 23.2162 49.0863 23.0618 48.7362 22.7529C48.3862 22.4235 48.2009 22.0116 48.1803 21.5175C48.1803 21.0233 48.3862 20.5188 48.798 20.0041L53.5853 14.1357V16.2359L49.1378 10.8C48.7053 10.2646 48.4994 9.74987 48.52 9.2557C48.5406 8.76152 48.7259 8.36 49.076 8.05114C49.426 7.74228 49.8893 7.58785 50.4659 7.58785C51.0218 7.58785 51.4851 7.68051 51.8557 7.86582C52.2264 8.05114 52.5764 8.36 52.9059 8.7924L56.2107 13.0238H54.5737L57.8785 8.7924C58.2286 8.36 58.5889 8.05114 58.9595 7.86582C59.3302 7.68051 59.7832 7.58785 60.3185 7.58785C60.8951 7.58785 61.3583 7.75257 61.7084 8.08202C62.0584 8.39089 62.2334 8.7924 62.2334 9.28658C62.254 9.78076 62.0481 10.2852 61.6157 10.8L57.1681 16.2359V14.1357L61.9864 20.0041C62.4188 20.4982 62.6247 20.9924 62.6041 21.4866C62.5835 21.9808 62.3879 22.3926 62.0172 22.722C61.6672 23.0515 61.2039 23.2162 60.6274 23.2162C60.0714 23.2162 59.6081 23.1235 59.2375 22.9382C58.8875 22.7323 58.5374 22.4235 58.1874 22.0116L54.5737 17.4096H56.1489L52.5352 22.0116C52.2058 22.4029 51.8557 22.7014 51.4851 22.9073C51.1351 23.1132 50.6821 23.2162 50.1261 23.2162Z" fill="#2D3142"/>
<path d="M68.3981 23.278C67.6774 23.278 67.1215 23.0824 66.7303 22.6911C66.3596 22.2793 66.1743 21.7028 66.1743 20.9615V3.35645C66.1743 2.57401 66.3596 1.97688 66.7303 1.56506C67.1215 1.15325 67.6363 0.94734 68.2746 0.94734C68.8305 0.94734 69.2526 1.06059 69.5409 1.28709C69.8498 1.493 70.1998 1.84304 70.591 2.33721L81.432 16.1433H80.5981V3.23291C80.5981 2.51224 80.7834 1.95629 81.1541 1.56506C81.5453 1.15325 82.1012 0.94734 82.8219 0.94734C83.5426 0.94734 84.0882 1.15325 84.4589 1.56506C84.8501 1.95629 85.0457 2.51224 85.0457 3.23291V21.0542C85.0457 21.7337 84.8707 22.2793 84.5206 22.6911C84.1706 23.0824 83.697 23.278 83.0999 23.278C82.5233 23.278 82.0601 23.1647 81.71 22.9382C81.3806 22.7117 81.0202 22.3514 80.629 21.8572L69.8189 8.05114H70.6219V20.9615C70.6219 21.7028 70.4366 22.2793 70.066 22.6911C69.6953 23.0824 69.1394 23.278 68.3981 23.278ZM94.1549 23.3397C93.043 23.3397 92.0444 23.1235 91.159 22.6911C90.2736 22.2587 89.5838 21.6719 89.0896 20.9306C88.5954 20.1894 88.3483 19.3554 88.3483 18.4289C88.3483 17.317 88.6366 16.4419 89.2132 15.8035C89.7897 15.1446 90.7266 14.6813 92.0238 14.4137C93.321 14.1254 95.0403 13.9813 97.1818 13.9813H98.8187V16.3904H97.2127C96.1625 16.3904 95.308 16.4522 94.6491 16.5757C94.0108 16.6786 93.5475 16.864 93.2592 17.1316C92.9916 17.3993 92.8577 17.77 92.8577 18.2435C92.8577 18.8201 93.0533 19.2937 93.4446 19.6643C93.8564 20.0349 94.4432 20.2203 95.2051 20.2203C95.8022 20.2203 96.3273 20.0864 96.7802 19.8187C97.2538 19.5305 97.6245 19.1495 97.8921 18.6759C98.1598 18.1818 98.2937 17.6258 98.2937 17.0081V13.4562C98.2937 12.5502 98.0878 11.9119 97.6759 11.5413C97.2641 11.15 96.564 10.9544 95.5757 10.9544C95.0197 10.9544 94.4123 11.0265 93.7534 11.1706C93.1151 11.2942 92.4047 11.5104 91.6223 11.8192C91.1693 12.0251 90.7678 12.0766 90.4177 11.9737C90.0677 11.8501 89.8 11.6442 89.6147 11.3559C89.4294 11.0471 89.3367 10.7176 89.3367 10.3676C89.3367 9.99696 89.4397 9.64692 89.6456 9.31747C89.8515 8.96743 90.1912 8.71004 90.6648 8.54532C91.6326 8.15409 92.5386 7.88641 93.3828 7.74228C94.2476 7.59814 95.0403 7.52607 95.761 7.52607C97.3465 7.52607 98.6437 7.76287 99.6527 8.23646C100.682 8.68945 101.454 9.39983 101.969 10.3676C102.484 11.3148 102.741 12.5399 102.741 14.043V20.8997C102.741 21.6616 102.556 22.2484 102.185 22.6603C101.815 23.0721 101.279 23.278 100.579 23.278C99.8792 23.278 99.3335 23.0721 98.9423 22.6603C98.5716 22.2484 98.3863 21.6616 98.3863 20.8997V19.757L98.6025 19.9423C98.479 20.6424 98.2113 21.2498 97.7995 21.7646C97.4083 22.2587 96.9038 22.65 96.2861 22.9382C95.6683 23.2059 94.958 23.3397 94.1549 23.3397ZM112.494 23.278C111.897 23.278 111.372 23.1235 110.919 22.8147C110.466 22.4852 110.105 22.0014 109.838 21.363L105.174 10.6147C104.947 10.0793 104.865 9.58515 104.927 9.13215C104.988 8.65856 105.205 8.28793 105.575 8.02025C105.967 7.73198 106.502 7.58785 107.181 7.58785C107.737 7.58785 108.19 7.72169 108.54 7.98937C108.89 8.23645 109.199 8.72034 109.467 9.44101L113.112 18.7068H112.123L115.922 9.41013C116.21 8.71004 116.53 8.23645 116.88 7.98937C117.23 7.72169 117.714 7.58785 118.331 7.58785C118.867 7.58785 119.289 7.73198 119.598 8.02025C119.927 8.28793 120.123 8.64827 120.184 9.10127C120.267 9.55426 120.184 10.0484 119.937 10.5838L115.181 21.363C114.913 22.0219 114.553 22.5058 114.1 22.8147C113.667 23.1235 113.132 23.278 112.494 23.278Z" fill="#E4151A"/>
</svg>
