<svg width="48" height="48" viewBox="0 0 48 48" fill="none" xmlns="http://www.w3.org/2000/svg">
<g clip-path="url(#clip0_130_29339)">
<path d="M10.942 27.0799C9.40857 26.8545 7.86454 26.708 6.31604 26.6409C5.63704 26.5989 4.74204 26.9529 4.58704 28.6649C4.55812 29.0954 4.59967 29.5278 4.71004 29.9449C4.81289 30.3805 5.04477 30.7749 5.37537 31.0766C5.70596 31.3783 6.11989 31.5732 6.56304 31.6359L13.182 32.5679C13.2151 32.5734 13.2485 32.576 13.282 32.5759C13.4113 32.576 13.5385 32.5427 13.6511 32.4792C13.7637 32.4157 13.858 32.3242 13.9248 32.2135C13.9916 32.1028 14.0287 31.9767 14.0324 31.8475C14.0361 31.7183 14.0064 31.5903 13.946 31.4759C11.769 27.3349 11.211 27.1629 10.942 27.0799ZM6.77204 30.1509C6.62664 30.1287 6.49126 30.0633 6.3834 29.9633C6.27554 29.8633 6.20017 29.7332 6.16704 29.5899C6.09727 29.333 6.06825 29.0668 6.08104 28.8009C6.08341 28.5733 6.13492 28.3488 6.23204 28.1429H6.25304C7.96304 28.2499 9.88604 28.4049 10.407 28.4969C10.9701 29.2503 11.4736 30.0464 11.913 30.8779L6.77204 30.1509Z" fill="#919EAB"/>
<path d="M41.6831 26.641C40.1346 26.7081 38.5906 26.8547 37.0571 27.08C36.7881 27.163 36.2291 27.335 34.0491 31.48C33.9887 31.5944 33.959 31.7224 33.9627 31.8516C33.9664 31.9808 34.0035 32.1069 34.0703 32.2176C34.1371 32.3283 34.2314 32.4198 34.344 32.4833C34.4567 32.5468 34.5838 32.5801 34.7131 32.58C34.7466 32.5801 34.78 32.5775 34.8131 32.572L41.4321 31.64C41.8752 31.5773 42.2892 31.3824 42.6198 31.0807C42.9503 30.779 43.1822 30.3846 43.2851 29.949C43.3951 29.5318 43.4367 29.0995 43.4081 28.669C43.2561 26.953 42.3561 26.6 41.6831 26.641ZM41.8321 29.59C41.7989 29.7333 41.7236 29.8634 41.6157 29.9634C41.5079 30.0634 41.3725 30.1288 41.2271 30.151L36.0861 30.875C36.5258 30.0438 37.029 29.2478 37.5911 28.494C38.1211 28.401 40.0461 28.246 41.7551 28.14C41.8641 28.3431 41.9202 28.5705 41.9181 28.801C41.9309 29.0669 41.9019 29.3331 41.8321 29.59Z" fill="#919EAB"/>
<path d="M34.3821 27.7779C34.3065 27.67 34.2039 27.5838 34.0846 27.528C33.9652 27.4722 33.8333 27.4487 33.7021 27.4599C33.6331 27.4659 26.7441 28.0599 24.0021 28.0599C21.2601 28.0599 14.3701 27.4599 14.3021 27.4599C14.1707 27.4484 14.0387 27.4716 13.9192 27.5275C13.7998 27.5833 13.6972 27.6696 13.6218 27.7777C13.5465 27.8859 13.501 28.012 13.4899 28.1434C13.4789 28.2748 13.5027 28.4067 13.5591 28.5259L15.5341 32.7169C15.5918 32.8387 15.6812 32.9428 15.7929 33.0182C15.9046 33.0937 16.0345 33.1378 16.1691 33.1459L23.9981 33.5939L31.8391 33.1459C31.9737 33.138 32.1037 33.094 32.2154 33.0185C32.3271 32.943 32.4165 32.8389 32.4741 32.7169L34.4491 28.5259C34.5049 28.4064 34.5282 28.2743 34.5164 28.1429C34.5046 28.0115 34.4583 27.8856 34.3821 27.7779ZM31.3041 31.6779L24.0001 32.0999L16.7001 31.6779L15.4691 29.0659C17.6281 29.2419 21.9081 29.5659 24.0031 29.5659C26.0981 29.5659 30.3791 29.2419 32.5391 29.0659L31.3041 31.6779Z" fill="#919EAB"/>
<path d="M28.3111 4.99406L29.4171 5.40806C29.7788 5.54325 30.1072 5.75441 30.3803 6.02732C30.6533 6.30022 30.8647 6.62852 31.0001 6.99006L31.4141 8.10006C31.4681 8.24196 31.564 8.3641 31.689 8.45027C31.814 8.53645 31.9623 8.5826 32.1141 8.5826C32.266 8.5826 32.4142 8.53645 32.5392 8.45027C32.6642 8.3641 32.7601 8.24196 32.8141 8.10006L33.2281 6.99406C33.3637 6.63278 33.575 6.3047 33.8479 6.03184C34.1208 5.75897 34.4489 5.54765 34.8101 5.41206L35.9161 4.99806C36.058 4.94404 36.1802 4.84817 36.2663 4.72316C36.3525 4.59815 36.3987 4.44989 36.3987 4.29806C36.3987 4.14622 36.3525 3.99797 36.2663 3.87296C36.1802 3.74794 36.058 3.65207 35.9161 3.59806L34.8101 3.18406C34.4486 3.04864 34.1203 2.83726 33.8474 2.56419C33.5745 2.29111 33.3633 1.96268 33.2281 1.60106L32.8181 0.487056C32.7641 0.345153 32.6682 0.223017 32.5432 0.13684C32.4182 0.0506637 32.27 0.0045166 32.1181 0.0045166C31.9663 0.0045166 31.818 0.0506637 31.693 0.13684C31.568 0.223017 31.4721 0.345153 31.4181 0.487056L31.0001 1.59306C30.8649 1.95468 30.6538 2.28311 30.3809 2.55619C30.108 2.82926 29.7797 3.04064 29.4181 3.17606L28.3121 3.59006C28.1702 3.64407 28.0481 3.73994 27.9619 3.86496C27.8757 3.98997 27.8296 4.13822 27.8296 4.29006C27.8296 4.44189 27.8757 4.59015 27.9619 4.71516C28.0481 4.84017 28.1702 4.93604 28.3121 4.99006L28.3111 4.99406ZM32.1161 2.73306C32.4871 3.38239 33.025 3.92066 33.6741 4.29206C33.0248 4.66318 32.4868 5.20151 32.1161 5.85106C31.7446 5.20183 31.2064 4.66362 30.5571 4.29206C31.2064 3.92049 31.7446 3.38228 32.1161 2.73306Z" fill="#919EAB"/>
<path d="M36.7428 9.64903L37.5808 9.96303C37.8306 10.0568 38.0573 10.2029 38.2458 10.3916C38.4344 10.5803 38.5803 10.8072 38.6738 11.057L38.9878 11.895C39.0413 12.0381 39.1373 12.1615 39.2628 12.2486C39.3884 12.3357 39.5375 12.3824 39.6903 12.3824C39.8431 12.3824 39.9923 12.3357 40.1178 12.2486C40.2434 12.1615 40.3393 12.0381 40.3928 11.895L40.7058 11.057C40.7995 10.8071 40.9456 10.5802 41.1343 10.3915C41.323 10.2028 41.5499 10.0567 41.7998 9.96303L42.6378 9.64903C42.7793 9.5946 42.901 9.49858 42.9868 9.37362C43.0726 9.24866 43.1186 9.10062 43.1186 8.94903C43.1186 8.79744 43.0726 8.6494 42.9868 8.52444C42.901 8.39947 42.7793 8.30345 42.6378 8.24903L41.7998 7.93103C41.5501 7.83802 41.3233 7.69235 41.1349 7.50393C40.9465 7.31551 40.8008 7.08874 40.7078 6.83903L40.3928 6.00003C40.3393 5.85691 40.2434 5.73355 40.1178 5.64646C39.9923 5.55936 39.8431 5.5127 39.6903 5.5127C39.5375 5.5127 39.3884 5.55936 39.2628 5.64646C39.1373 5.73355 39.0413 5.85691 38.9878 6.00003L38.6738 6.83903C38.5803 7.08873 38.4344 7.31548 38.2458 7.50403C38.0573 7.69257 37.8305 7.83851 37.5808 7.93203L36.7418 8.24603C36.5999 8.30005 36.4778 8.39591 36.3916 8.52093C36.3054 8.64594 36.2593 8.79419 36.2593 8.94603C36.2593 9.09787 36.3054 9.24612 36.3916 9.37113C36.4778 9.49614 36.5999 9.59201 36.7418 9.64603L36.7428 9.64903ZM39.6898 8.10003C39.9181 8.42926 40.2036 8.71479 40.5328 8.94303C40.2043 9.17171 39.9189 9.45678 39.6898 9.78503C39.4614 9.45659 39.1763 9.17147 38.8478 8.94303C39.1767 8.71477 39.4619 8.42922 39.6898 8.10003Z" fill="#919EAB"/>
<path d="M41.4279 4.99395L42.2659 5.30795C42.5154 5.40136 42.7421 5.54715 42.9307 5.73552C43.1192 5.92388 43.2652 6.15044 43.3589 6.39995L43.6729 7.23795C43.7264 7.38107 43.8223 7.50443 43.9479 7.59153C44.0734 7.67862 44.2226 7.72529 44.3754 7.72529C44.5281 7.72529 44.6773 7.67862 44.8028 7.59153C44.9284 7.50443 45.0243 7.38107 45.0779 7.23795L45.3918 6.39995C45.4851 6.15029 45.6309 5.92353 45.8193 5.73498C46.0077 5.54644 46.2343 5.40048 46.4839 5.30695L47.3229 4.99295C47.4648 4.93894 47.5869 4.84307 47.6731 4.71805C47.7592 4.59304 47.8054 4.44479 47.8054 4.29295C47.8054 4.14112 47.7592 3.99286 47.6731 3.86785C47.5869 3.74284 47.4648 3.64697 47.3229 3.59295L46.4849 3.27795C46.2353 3.18459 46.0088 3.03881 45.8204 2.85043C45.632 2.66205 45.4862 2.43547 45.3929 2.18595L45.0788 1.34695C45.0253 1.20383 44.9294 1.08047 44.8038 0.993381C44.6783 0.906288 44.5291 0.859619 44.3764 0.859619C44.2236 0.859619 44.0744 0.906288 43.9489 0.993381C43.8233 1.08047 43.7274 1.20383 43.6739 1.34695L43.3599 2.18595C43.2663 2.43553 43.1204 2.66215 42.9318 2.85053C42.7433 3.03891 42.5165 3.18466 42.2668 3.27795L41.4279 3.59295C41.2859 3.64697 41.1638 3.74284 41.0776 3.86785C40.9915 3.99286 40.9453 4.14112 40.9453 4.29295C40.9453 4.44479 40.9915 4.59304 41.0776 4.71805C41.1638 4.84307 41.2859 4.93894 41.4279 4.99295V4.99395ZM44.3749 3.44995C44.6038 3.77797 44.8888 4.063 45.2169 4.29195C44.8888 4.5209 44.6038 4.80594 44.3749 5.13395C44.1464 4.80552 43.8613 4.5204 43.5329 4.29195C43.8611 4.06325 44.1461 3.77817 44.3749 3.44995Z" fill="#919EAB"/>
<path d="M45.8108 42.3711C45.6119 42.3711 45.4211 42.4501 45.2804 42.5908C45.1398 42.7314 45.0608 42.9222 45.0608 43.1211V46.2351C45.0608 46.3054 45.0328 46.3728 44.9832 46.4225C44.9335 46.4722 44.8661 46.5001 44.7958 46.5001H40.8998C40.8295 46.5001 40.7621 46.4722 40.7124 46.4225C40.6627 46.3728 40.6348 46.3054 40.6348 46.2351V44.9511C40.6348 44.7522 40.5557 44.5614 40.4151 44.4208C40.2744 44.2801 40.0837 44.2011 39.8848 44.2011C39.6859 44.2011 39.4951 44.2801 39.3544 44.4208C39.2138 44.5614 39.1348 44.7522 39.1348 44.9511V46.2351C39.1353 46.7031 39.3214 47.1517 39.6523 47.4826C39.9832 47.8135 40.4318 47.9996 40.8998 48.0001H44.7998C45.2677 47.9996 45.7163 47.8135 46.0472 47.4826C46.3781 47.1517 46.5642 46.7031 46.5648 46.2351V43.1211C46.5648 43.0223 46.5452 42.9244 46.5073 42.8332C46.4694 42.7419 46.4138 42.6591 46.3437 42.5894C46.2736 42.5197 46.1905 42.4645 46.099 42.427C46.0076 42.3896 45.9096 42.3706 45.8108 42.3711Z" fill="#919EAB"/>
<path d="M8.06179 44.2001C7.86288 44.2001 7.67211 44.2791 7.53146 44.4198C7.39081 44.5604 7.31179 44.7512 7.31179 44.9501V46.2341C7.31179 46.3042 7.28401 46.3715 7.23453 46.4211C7.18505 46.4708 7.1179 46.4988 7.04779 46.4991H3.14779C3.07768 46.4988 3.01053 46.4708 2.96105 46.4211C2.91157 46.3715 2.88379 46.3042 2.88379 46.2341V43.1211C2.88379 42.9222 2.80477 42.7314 2.66412 42.5908C2.52347 42.4501 2.3327 42.3711 2.13379 42.3711C1.93488 42.3711 1.74411 42.4501 1.60346 42.5908C1.46281 42.7314 1.38379 42.9222 1.38379 43.1211V46.2351C1.38405 46.7026 1.56968 47.1509 1.89998 47.4818C2.23027 47.8126 2.67828 47.999 3.14579 48.0001H7.04579C7.51364 47.9996 7.96217 47.8134 8.29289 47.4825C8.62362 47.1516 8.80953 46.7029 8.80979 46.2351V44.9511C8.81006 44.7524 8.73143 44.5616 8.59118 44.4208C8.45093 44.28 8.26053 44.2006 8.06179 44.2001Z" fill="#919EAB"/>
<path d="M46.4291 18.855L43.9291 18.423C43.5638 18.3556 43.1865 18.4147 42.8593 18.5905C42.5321 18.7662 42.2745 19.0483 42.1291 19.39L41.9941 19.69L40.2221 15.51C39.8215 14.5516 39.1822 13.7117 38.3651 13.0703C37.548 12.4289 36.5802 12.0074 35.5541 11.846C31.7304 11.2655 27.8675 10.9827 24.0001 11C20.1326 10.983 16.2697 11.2662 12.4461 11.847C11.42 12.0083 10.4524 12.4297 9.63525 13.0709C8.81813 13.7121 8.17877 14.5518 7.77807 15.51L6.00007 19.694L5.87407 19.4C5.72975 19.0568 5.47286 18.7729 5.14569 18.5952C4.81852 18.4174 4.44057 18.3563 4.07407 18.422L1.57407 18.855C1.16836 18.9223 0.799713 19.1314 0.5338 19.4451C0.267886 19.7588 0.121978 20.1568 0.12207 20.568V21.059C0.122445 21.4549 0.257493 21.8389 0.505016 22.1478C0.752539 22.4568 1.09781 22.6723 1.48407 22.759L3.85807 23.295L2.80607 24.9C1.89453 26.2868 1.40953 27.9104 1.41107 29.57V38.1C1.41107 41.319 3.65307 43.4 7.12507 43.4H40.8751C44.3471 43.4 46.5891 41.32 46.5891 38.1V29.566C46.5906 27.9064 46.1056 26.2828 45.1941 24.896L44.1421 23.296L46.5081 22.762C46.8955 22.6764 47.2421 22.4613 47.491 22.1523C47.7398 21.8433 47.876 21.4588 47.8771 21.062V20.571C47.8782 20.1598 47.7333 19.7615 47.4681 19.4472C47.2029 19.1329 46.8346 18.923 46.4291 18.855ZM1.80707 21.291C1.75443 21.2792 1.70741 21.2497 1.67377 21.2076C1.64013 21.1654 1.62189 21.113 1.62207 21.059V20.568C1.62126 20.5114 1.64111 20.4564 1.67793 20.4133C1.71474 20.3702 1.76598 20.342 1.82207 20.334L4.33307 19.9C4.36829 19.8937 4.40462 19.9003 4.43532 19.9187C4.46603 19.9371 4.48903 19.966 4.50007 20L5.11307 21.386L4.73907 21.956L1.80707 21.291ZM45.0891 35.77H4.81207C4.61316 35.77 4.42239 35.849 4.28174 35.9897C4.14109 36.1303 4.06207 36.3211 4.06207 36.52C4.06207 36.7189 4.14109 36.9097 4.28174 37.0503C4.42239 37.191 4.61316 37.27 4.81207 37.27H45.0891V38.1C45.0891 40.478 43.5141 41.9 40.8751 41.9H7.12507C4.48607 41.9 2.91107 40.479 2.91107 38.1V29.566C2.91002 28.1987 3.30946 26.8609 4.06007 25.718L6.42407 22.112H39.1451C39.344 22.112 39.5347 22.033 39.6754 21.8923C39.8161 21.7517 39.8951 21.5609 39.8951 21.362C39.8951 21.1631 39.8161 20.9723 39.6754 20.8317C39.5347 20.691 39.344 20.612 39.1451 20.612H7.24307L9.15907 16.1C9.46063 15.3761 9.94271 14.7416 10.5593 14.257C11.1759 13.7724 11.9064 13.4539 12.6811 13.332C16.4268 12.7615 20.2112 12.4833 24.0001 12.5C27.7889 12.4823 31.5733 12.7595 35.3191 13.329C36.0941 13.4512 36.8248 13.7701 37.4414 14.2552C38.058 14.7404 38.5399 15.3755 38.8411 16.1L41.0331 21.267C41.0501 21.3084 41.0712 21.3479 41.0961 21.385L43.9401 25.722C44.6907 26.8649 45.0901 28.2027 45.0891 29.57V35.77ZM46.3771 21.059C46.377 21.114 46.358 21.1674 46.3232 21.21C46.2884 21.2526 46.24 21.282 46.1861 21.293L43.2641 21.953L42.8901 21.383L43.5071 19.983C43.5209 19.9527 43.5444 19.9278 43.5739 19.9123C43.6034 19.8967 43.6372 19.8913 43.6701 19.897L46.1761 20.331C46.2322 20.339 46.2834 20.3672 46.3202 20.4103C46.357 20.4534 46.3769 20.5084 46.3761 20.565L46.3771 21.059Z" fill="#919EAB"/>
</g>
<defs>
<clipPath id="clip0_130_29339">
<rect width="48" height="48" fill="white"/>
</clipPath>
</defs>
</svg>
