<svg width="180" height="55" viewBox="0 0 180 55" fill="none" xmlns="http://www.w3.org/2000/svg">
<path d="M155.731 17.4731C155.761 16.8699 155.671 16.2667 155.465 15.6993C155.259 15.1319 154.941 14.6118 154.531 14.1699C153.676 13.3509 152.542 12.8887 151.36 12.8764C150.178 12.8642 149.036 13.3028 148.163 14.1038C147.758 14.556 147.445 15.084 147.244 15.6577C147.042 16.2314 146.955 16.8395 146.987 17.4471C146.973 17.9647 147.073 18.4791 147.28 18.9532C147.487 19.4274 147.796 19.8496 148.185 20.1895C149.42 21.129 150.825 21.8208 152.321 22.2271C154.696 22.8553 156.861 24.1084 158.593 25.8572C159.921 27.4665 160.604 29.5157 160.508 31.604C160.536 32.7529 160.319 33.8945 159.873 34.9528C159.427 36.0111 158.762 36.9618 157.921 37.7416C156.166 39.3904 153.832 40.2734 151.43 40.1971C150.215 40.2584 149.001 40.0662 147.864 39.6326C146.727 39.199 145.691 38.5334 144.823 37.6777C143.985 36.7641 143.337 35.6916 142.917 34.5231C142.498 33.3547 142.314 32.1137 142.378 30.8732H146.123C145.994 32.465 146.48 34.0456 147.48 35.2872C147.979 35.8273 148.591 36.2501 149.272 36.5255C149.952 36.801 150.685 36.9223 151.417 36.8809C152.832 36.9544 154.219 36.4664 155.279 35.5221C155.764 35.0491 156.142 34.478 156.39 33.8467C156.638 33.2154 156.749 32.5384 156.716 31.8606C156.746 31.1807 156.638 30.5019 156.399 29.8651C156.16 29.2283 155.795 28.6468 155.326 28.1557C153.953 26.9833 152.337 26.135 150.595 25.6732C148.475 25.1066 146.528 24.0207 144.928 22.5129C143.746 21.1899 143.125 19.4566 143.195 17.681C143.164 16.6046 143.354 15.5333 143.752 14.5336C144.151 13.5339 144.749 12.627 145.511 11.8692C146.274 11.1072 147.183 10.5093 148.184 10.1119C149.185 9.71453 150.256 9.52597 151.331 9.55774C152.41 9.50824 153.488 9.67561 154.502 10.05C155.516 10.4245 156.445 10.9984 157.235 11.7382C157.985 12.4856 158.571 13.382 158.956 14.3701C159.342 15.3582 159.517 16.4161 159.472 17.4763L155.731 17.4731Z" fill="white"/>
<path d="M169.365 39.5172V13.6069H163.175V10.2387H169.365V0H173.109V10.2387H180V13.6069H173.109V39.5172H169.365Z" fill="white"/>
<path d="M97.5175 11.6386C96.3019 10.3543 94.8335 9.33816 93.2057 8.65468C91.578 7.97119 89.8265 7.63534 88.0625 7.66845H87.9989C87.8545 7.65979 87.7101 7.65005 87.5602 7.65005H87.4783C87.3263 7.65005 87.1938 7.65871 87.0612 7.66737H86.9803C85.2189 7.63506 83.4701 7.97135 81.845 8.65486C80.22 9.33836 78.7544 10.3541 77.5415 11.6375C75.1562 14.2738 73.9457 17.9732 73.9457 22.6341V39.4532H78.7293V22.5302C78.5653 19.7582 79.3977 17.0193 81.0747 14.8119C81.9145 13.9473 82.9181 13.2603 84.0262 12.7912C85.1344 12.3221 86.3248 12.0804 87.5274 12.0804C88.7299 12.0804 89.9203 12.3221 91.0285 12.7912C92.1366 13.2603 93.1402 13.9473 93.98 14.8119C95.6576 17.0192 96.4906 19.758 96.3276 22.5302V39.4522H101.111V22.6373C101.112 17.9765 99.9029 14.277 97.5175 11.6386Z" fill="white"/>
<path d="M16.8059 12.2417H16.5386V14.6603L16.379 14.4936C15.4563 13.6184 14.3709 12.9345 13.1848 12.4811C11.9987 12.0276 10.7352 11.8134 9.46669 11.8508C8.22986 11.8257 7.00022 12.0456 5.84803 12.4979C4.69583 12.9503 3.64364 13.6262 2.75159 14.4871C1.88178 15.3236 1.18958 16.3284 0.716684 17.4408C0.243791 18.5532 0 19.7502 0 20.9598C0 22.1694 0.243791 23.3664 0.716684 24.4789C1.18958 25.5913 1.88178 26.596 2.75159 27.4325C3.64049 28.2942 4.69026 28.9708 5.84048 29.4234C6.9907 29.8761 8.21868 30.0958 9.45375 30.0699C10.7248 30.1082 11.9908 29.8936 13.1789 29.4386C14.3671 28.9835 15.4539 28.297 16.3769 27.4184L16.5439 27.2398V27.4953C16.6025 28.3505 16.4878 29.2087 16.207 30.0181C15.9261 30.8276 15.4849 31.5715 14.9099 32.2049C13.5807 33.3577 11.851 33.9346 10.0994 33.8094C8.72182 33.838 7.365 33.469 6.18998 32.7462C5.08277 32.0501 4.22852 31.014 3.75401 29.7916L3.6861 29.6227H0.676703L0.770477 29.9627C1.26603 31.8617 2.43958 33.5114 4.06767 34.5976C5.8596 35.748 7.95537 36.3287 10.0811 36.2638C12.5939 36.42 15.0669 35.5755 16.9643 33.9133C17.8082 33.0301 18.4607 31.9808 18.8807 30.8317C19.3007 29.6825 19.4791 28.4584 19.4046 27.2366V12.2417H16.8059ZM9.74155 27.6155C8.84035 27.6341 7.94449 27.4724 7.10618 27.1397C6.26787 26.8069 5.5039 26.3099 4.85882 25.6775C4.22879 25.0593 3.72816 24.3208 3.38637 23.5054C3.04457 22.69 2.86849 21.8142 2.86849 20.9295C2.86849 20.0448 3.04457 19.169 3.38637 18.3536C3.72816 17.5383 4.22879 16.7997 4.85882 16.1815C5.50252 15.5465 6.266 15.047 7.10446 14.7123C7.94293 14.3777 8.83949 14.2146 9.74155 14.2327C10.6456 14.2127 11.5447 14.3738 12.3861 14.7065C13.2276 15.0393 13.9947 15.537 14.6426 16.1707C15.2726 16.7889 15.7732 17.5274 16.115 18.3428C16.4568 19.1582 16.6329 20.034 16.6329 20.9187C16.6329 21.8034 16.4568 22.6792 16.115 23.4945C15.7732 24.3099 15.2726 25.0484 14.6426 25.6667C13.9959 26.3029 13.2293 26.8031 12.3877 27.1381C11.5462 27.4731 10.6466 27.6361 9.74155 27.6177V27.6155Z" fill="white"/>
<path d="M32.713 11.8509C30.166 11.7954 27.698 12.7405 25.8341 14.485C24.941 15.3083 24.2279 16.309 23.7401 17.4237C23.2523 18.5384 23.0004 19.7428 23.0004 20.9604C23.0004 22.178 23.2523 23.3824 23.7401 24.4971C24.2279 25.6118 24.941 26.6125 25.8341 27.4358C27.6976 29.1809 30.1659 30.1261 32.713 30.0699C34.7115 30.089 36.6702 29.5097 38.3395 28.4059C39.9548 27.3635 41.1901 25.8231 41.8598 24.0157L41.9945 23.6541H39.0336L38.9593 23.8002C38.3971 24.9651 37.5249 25.951 36.4392 26.6487C35.34 27.3107 34.0774 27.6483 32.796 27.6231C31.8898 27.6417 30.9887 27.4806 30.1444 27.1492C29.3001 26.8178 28.5292 26.3225 27.8756 25.6916C26.8447 24.7296 26.1681 23.4457 25.9559 22.0485H42.3556L42.3912 21.8211C42.4355 21.5347 42.4517 21.2446 42.4397 20.955C42.4559 19.737 42.2126 18.5296 41.7263 17.4137C41.24 16.2979 40.5219 15.2993 39.62 14.485C37.748 12.7355 35.2693 11.7902 32.713 11.8509ZM32.713 14.302C33.6116 14.2819 34.5051 14.4421 35.3411 14.7734C36.1772 15.1047 36.9389 15.6004 37.5817 16.2313C38.5311 17.1229 39.1809 18.289 39.4411 19.5681H25.9925C26.2749 18.3024 26.9193 17.1471 27.8465 16.2443C28.4882 15.6116 29.2492 15.1137 30.0848 14.7798C30.9204 14.4459 31.8139 14.2828 32.713 14.2999V14.302Z" fill="white"/>
<path d="M54.5202 12.2373H50.4933V6.33142H47.6272V12.2373H43.7728V14.7177H47.6272V29.6747H50.4933V14.721H54.7875V12.2373H54.5202Z" fill="white"/>
<path d="M58.0388 40.2092V41.1424L58.2005 41.2106L66.4483 44.7141L58.2069 47.9621L58.0377 48.0292V50.1567L58.4031 50.0073L68.8584 45.7459L73.1839 47.6038L73.5547 47.7629V45.7881L73.3941 45.7178L58.4117 39.2077L58.0388 39.0464V40.2092Z" fill="#E4151A"/>
<path d="M57.7767 32.5352C57.7911 33.9229 58.2832 35.2629 59.1694 36.3277C60.0555 37.3925 61.2812 38.1164 62.6384 38.3767C63.9955 38.637 65.4006 38.4175 66.6149 37.7556C67.8293 37.0936 68.7783 36.03 69.3007 34.7452C69.8231 33.4604 69.8868 32.0336 69.481 30.707C69.0752 29.3803 68.2249 28.2356 67.0744 27.4671C65.9239 26.6986 64.5441 26.3537 63.1692 26.4909C61.7943 26.6281 60.509 27.2389 59.5315 28.2197C58.9614 28.7807 58.5116 29.453 58.2099 30.1952C57.9081 30.9373 57.7607 31.7337 57.7767 32.5352ZM68.0972 32.5352C68.1085 33.0801 68.0047 33.6213 67.7927 34.1231C67.5807 34.6249 67.2654 35.0759 66.8674 35.4465C66.0413 36.2134 64.9576 36.6394 63.8327 36.6394C62.7077 36.6394 61.6241 36.2134 60.7979 35.4465C60.4071 35.0694 60.0962 34.6169 59.8838 34.1162C59.6714 33.6154 59.5619 33.0768 59.5619 32.5325C59.5619 31.9882 59.6714 31.4495 59.8838 30.9487C60.0962 30.448 60.4071 29.9955 60.7979 29.6185C61.6236 28.8506 62.7074 28.424 63.8327 28.424C64.9579 28.424 66.0417 28.8506 66.8674 29.6185C67.2657 29.9899 67.5812 30.4419 67.7931 30.9446C68.0051 31.4473 68.1088 31.9894 68.0972 32.5352Z" fill="#E4151A"/>
<path d="M58.0387 15.6283V16.6092H64.175C65.2203 16.5394 66.2564 16.8431 67.1003 17.4666C67.4386 17.7659 67.704 18.1393 67.8759 18.5579C68.0478 18.9765 68.1217 19.4291 68.0919 19.881C68.1187 20.2946 68.0575 20.7092 67.9126 21.0972C67.7676 21.4853 67.5422 21.838 67.2512 22.1318C66.5925 22.7063 65.7355 22.998 64.8648 22.9438H58.0387V24.9045H64.895C65.5648 24.9407 66.2349 24.84 66.8648 24.6085C67.4947 24.377 68.0713 24.0195 68.5597 23.5577C69.0177 23.0589 69.3715 22.4728 69.5999 21.8342C69.8284 21.1956 69.927 20.5174 69.8898 19.8398C69.9162 19.2123 69.7999 18.587 69.5496 18.0114C69.2994 17.4359 68.9217 16.9252 68.4455 16.5182H69.6311V14.6485H58.0387V15.6283Z" fill="#E4151A"/>
<path d="M57.7476 6.92478C57.731 7.46623 57.8306 8.00494 58.0396 8.50429C58.2487 9.00365 58.5623 9.45195 58.9592 9.81874H58.0343V11.7675H69.6257V9.81008H63.0507C62.6096 9.8399 62.1669 9.78147 61.7484 9.63818C61.3298 9.4949 60.9438 9.2696 60.6126 8.97534C60.0901 8.40709 59.7889 7.66872 59.7643 6.89555L59.7449 6.64978H57.7325L57.7476 6.92478Z" fill="#E4151A"/>
<path d="M133.185 27.6307C132.916 29.1285 132.338 30.5534 131.49 31.8141C130.306 33.4906 128.649 34.7709 126.732 35.4887C125.385 36.0484 123.936 36.3203 122.479 36.2871C121.021 36.254 119.587 35.9164 118.266 35.296C116.119 34.3429 114.331 32.7249 113.165 30.6784L137.185 21.1337L137.623 20.9604L137.515 20.5003C137.4 20.009 137.241 19.5292 137.039 19.0668C136.3 17.1185 135.181 15.3381 133.747 13.83C132.314 12.3218 130.595 11.1164 128.692 10.2842C126.789 9.45211 124.739 9.01008 122.663 8.98406C120.588 8.95804 118.528 9.34856 116.604 10.1327C114.671 10.8882 112.906 12.0231 111.414 13.4712C109.922 14.9193 108.733 16.6514 107.915 18.5665C107.097 20.4816 106.667 22.5412 106.65 24.6251C106.633 26.7089 107.03 28.7752 107.817 30.7033C109.116 34.0841 111.536 36.9118 114.668 38.7097C117.801 40.5076 121.454 41.1657 125.013 40.5731C128.573 39.9805 131.82 38.1734 134.207 35.4565C136.594 32.7396 137.976 29.279 138.119 25.6581L133.185 27.6307ZM112.265 20.1777C112.805 18.834 113.612 17.6145 114.635 16.5928C115.658 15.571 116.877 14.7684 118.218 14.2333C119.559 13.6983 120.994 13.4419 122.437 13.4798C123.879 13.5177 125.299 13.849 126.61 14.4536C128.585 15.3426 130.258 16.7927 131.423 18.6251L111.596 26.5026C111.232 24.3728 111.463 22.1832 112.265 20.1777Z" fill="white"/>
<path d="M132.798 44.8938H132.777L132.032 44.9046C131.729 44.9046 131.427 44.9046 131.128 44.9046C118.244 44.9046 107.79 41.8634 100.046 35.8579C99.8001 35.6895 99.5073 35.6039 99.2097 35.6132C98.9782 35.6112 98.7488 35.6577 98.5361 35.7496C98.3856 35.8061 98.2525 35.9011 98.1496 36.025C98.0468 36.149 97.9779 36.2977 97.9497 36.4566C97.9371 36.5877 97.9586 36.7198 98.0123 36.84C98.066 36.9602 98.1499 37.0642 98.2558 37.1419C102.411 40.3005 107.106 42.6697 112.109 44.1327C118.253 45.9032 124.622 46.764 131.013 46.6877C131.323 46.6877 131.632 46.6877 131.943 46.6877C132.199 46.6877 132.453 46.6823 132.715 46.6758H132.799C133.06 46.6909 133.318 46.6135 133.528 46.4573C133.739 46.301 133.888 46.0757 133.949 45.8205C133.96 45.7177 133.948 45.6139 133.915 45.516C133.881 45.4182 133.828 45.3286 133.757 45.2532C133.631 45.1301 133.48 45.0346 133.315 44.9727C133.15 44.9109 132.974 44.884 132.798 44.8938Z" fill="#0C234B"/>
<path d="M134.152 44.8904C133.976 44.7114 133.765 44.5715 133.532 44.4795C133.298 44.3876 133.049 44.3458 132.798 44.3567H132.769L132.024 44.3675C131.723 44.3711 131.424 44.3711 131.126 44.3675C118.364 44.3675 108.015 41.3609 100.37 35.4323C100.031 35.1928 99.6233 35.0701 99.2089 35.0826C98.9025 35.0809 98.5993 35.1435 98.3185 35.2666C98.0829 35.3597 97.8757 35.5135 97.7179 35.7125C97.5601 35.9115 97.4572 36.1486 97.4196 36.4002C97.3963 36.6229 97.4306 36.8479 97.5194 37.0534C97.6082 37.2588 97.7483 37.4377 97.9262 37.5727C102.133 40.7722 106.886 43.1722 111.952 44.6544C118.149 46.4396 124.571 47.3073 131.017 47.2301C131.327 47.2301 131.639 47.2301 131.952 47.2301C132.21 47.2301 132.466 47.2236 132.729 47.2182H132.822C133.212 47.2306 133.594 47.1025 133.899 46.8569C134.204 46.6113 134.411 46.2644 134.483 45.8789C134.502 45.6999 134.482 45.519 134.425 45.3485C134.368 45.1779 134.275 45.0217 134.152 44.8904ZM97.9499 36.4619C97.978 36.303 98.0469 36.1542 98.1497 36.0303C98.2525 35.9063 98.3858 35.8114 98.5363 35.7549C98.749 35.663 98.9784 35.6166 99.2099 35.6185C99.5075 35.6092 99.8003 35.6948 100.046 35.8632C107.79 41.8687 118.244 44.9099 131.128 44.9099C131.428 44.9099 131.729 44.9099 132.032 44.9099L132.777 44.8991H132.798C132.974 44.8893 133.149 44.916 133.314 44.9775C133.479 45.039 133.629 45.1339 133.755 45.2564C133.826 45.3317 133.879 45.4213 133.913 45.5192C133.946 45.617 133.958 45.7208 133.947 45.8237C133.886 46.0788 133.737 46.3042 133.526 46.4604C133.316 46.6167 133.058 46.694 132.797 46.679H132.713C132.451 46.6844 132.198 46.6876 131.941 46.6909C131.63 46.6909 131.321 46.6909 131.011 46.6909C124.62 46.7672 118.251 45.9064 112.107 44.1358C107.104 42.6728 102.409 40.3036 98.2539 37.1451C98.1487 37.0673 98.0654 36.9635 98.0121 36.8438C97.9588 36.724 97.9374 36.5925 97.9499 36.4619Z" fill="white"/>
<path d="M133.267 50.5247C124.235 49.9834 109.045 40.5739 101.685 27.9436C101.585 27.758 101.441 27.6005 101.264 27.4857C101.088 27.3709 100.886 27.3024 100.676 27.2864C100.583 27.2857 100.491 27.3045 100.406 27.3416C100.312 27.3834 100.227 27.445 100.159 27.5223C100.09 27.5997 100.039 27.6909 100.008 27.7899C99.9661 27.9486 99.9575 28.1144 99.9831 28.2767C100.009 28.4389 100.068 28.594 100.157 28.7318C101.22 30.5436 102.405 32.2799 103.704 33.9286C107.319 38.4784 111.612 42.441 116.429 45.6765C122.475 49.7506 128.899 52.3501 133.612 52.6305H133.659C133.774 52.6317 133.887 52.6052 133.989 52.5532C134.091 52.5012 134.18 52.4252 134.247 52.3317C134.329 52.2021 134.379 52.0547 134.392 51.9018C134.406 51.7489 134.384 51.5949 134.326 51.4525C134.254 51.2137 134.116 51 133.929 50.836C133.742 50.6719 133.512 50.564 133.267 50.5247Z" fill="#0C234B"/>
<path d="M134.834 51.2815C134.729 50.9398 134.527 50.6361 134.254 50.4067C133.981 50.1774 133.648 50.0323 133.294 49.9888C124.404 49.454 109.423 40.1571 102.144 27.6719C101.997 27.4051 101.785 27.1804 101.528 27.0192C101.271 26.8579 100.977 26.7654 100.674 26.7505C100.505 26.7493 100.339 26.784 100.185 26.8523C100.022 26.9241 99.8764 27.0301 99.7576 27.1633C99.6388 27.2964 99.5498 27.4536 99.4965 27.6242C99.4308 27.8551 99.4144 28.0972 99.4482 28.3349C99.482 28.5726 99.5653 28.8004 99.6927 29.0036C100.768 30.8369 101.967 32.5939 103.282 34.262C106.932 38.8561 111.266 42.8571 116.13 46.1237C122.251 50.2486 128.774 52.8817 133.579 53.1675H133.64C133.842 53.1713 134.042 53.1258 134.223 53.0349C134.404 52.944 134.56 52.8104 134.678 52.6457C134.811 52.4475 134.895 52.2201 134.922 51.9827C134.949 51.7453 134.919 51.5048 134.834 51.2815ZM133.662 52.6348H133.614C128.901 52.3544 122.478 49.7549 116.431 45.6809C111.614 42.4444 107.323 38.4811 103.709 33.9308C102.409 32.2821 101.224 30.5458 100.162 28.734C100.073 28.5961 100.013 28.4411 99.9878 28.2789C99.9621 28.1166 99.9707 27.9508 100.013 27.7921C100.043 27.6931 100.095 27.6019 100.163 27.5245C100.232 27.4472 100.316 27.3856 100.411 27.3438C100.496 27.3067 100.588 27.2879 100.681 27.2886C100.891 27.3046 101.093 27.3731 101.269 27.4879C101.445 27.6027 101.59 27.7602 101.69 27.9458C109.049 40.5761 124.239 49.9834 133.271 50.5269C133.518 50.5661 133.748 50.6743 133.936 50.839C134.123 51.0037 134.261 51.2182 134.333 51.458C134.39 51.6003 134.413 51.7543 134.399 51.9072C134.385 52.0601 134.335 52.2075 134.253 52.3371C134.186 52.4307 134.097 52.5065 133.994 52.5582C133.891 52.6098 133.778 52.6358 133.663 52.6337L133.662 52.6348Z" fill="white"/>
<path d="M140.56 46.0381C140.418 46.039 140.277 46.0583 140.14 46.0954C134.594 47.6279 128.876 48.4407 123.126 48.5141C117.377 48.607 111.678 47.4472 106.419 45.1145C106.27 45.051 106.109 45.0197 105.948 45.0225C105.579 45.0261 105.221 45.1449 104.924 45.3625C104.786 45.452 104.673 45.576 104.598 45.7224C104.522 45.8688 104.486 46.0324 104.492 46.1972C104.508 46.3261 104.557 46.4487 104.634 46.5525C104.712 46.6563 104.815 46.7377 104.934 46.7883C109.625 48.887 114.668 50.0775 119.798 50.2973C120.711 50.3471 121.652 50.372 122.594 50.372C128.62 50.3013 134.611 49.4546 140.422 47.8526C140.453 47.8461 140.481 47.8385 140.53 47.8234C140.785 47.7735 141.016 47.6403 141.188 47.4444C141.36 47.2486 141.462 47.0011 141.479 46.7407C141.448 46.5259 141.335 46.332 141.163 46.2006C140.991 46.0692 140.774 46.0108 140.56 46.0381Z" fill="#0C234B"/>
<path d="M140.561 45.5011C140.373 45.5019 140.186 45.527 140.005 45.5758C134.504 47.0967 128.832 47.9037 123.128 47.9771C117.456 48.0697 111.832 46.9269 106.643 44.6274C106.424 44.5311 106.187 44.4831 105.949 44.4866C105.465 44.491 104.995 44.6469 104.605 44.9327C104.391 45.076 104.219 45.2733 104.105 45.5049C103.992 45.7364 103.941 45.9939 103.958 46.2514C103.983 46.4725 104.065 46.6831 104.196 46.8624C104.328 47.0417 104.503 47.1834 104.706 47.2734C109.457 49.4009 114.566 50.6083 119.764 50.8321C120.685 50.8819 121.636 50.9079 122.59 50.9079C128.657 50.8383 134.69 49.9869 140.541 48.3745C140.578 48.3669 140.617 48.3561 140.682 48.3377C141.055 48.2539 141.39 48.0461 141.631 47.7479C141.872 47.4497 142.007 47.0785 142.012 46.6942C141.971 46.3452 141.797 46.0258 141.526 45.8032C141.256 45.5806 140.91 45.4723 140.561 45.5011ZM122.595 50.3731C121.652 50.3731 120.711 50.3482 119.799 50.2984C114.669 50.0786 109.626 48.8881 104.935 46.7894C104.816 46.7388 104.713 46.6574 104.635 46.5536C104.558 46.4498 104.509 46.3272 104.494 46.1983C104.487 46.0335 104.523 45.8699 104.599 45.7235C104.674 45.5771 104.787 45.4531 104.925 45.3636C105.223 45.146 105.58 45.0272 105.949 45.0236C106.11 45.0208 106.271 45.0521 106.42 45.1157C111.679 47.4483 117.378 48.6081 123.127 48.5152C128.878 48.4418 134.595 47.629 140.141 46.0965C140.278 46.0594 140.419 46.0401 140.561 46.0392C140.775 46.011 140.992 46.0685 141.165 46.1993C141.337 46.3301 141.452 46.5238 141.484 46.7386C141.467 46.9988 141.364 47.2462 141.193 47.442C141.021 47.6378 140.79 47.7711 140.535 47.8212C140.482 47.8364 140.454 47.844 140.427 47.8505C134.615 49.4535 128.622 50.301 122.595 50.372V50.3731Z" fill="white"/>
<path d="M143.562 28.8486C143.523 28.8443 143.484 28.8421 143.445 28.8421C143.218 28.8424 142.994 28.9025 142.796 29.0165C142.599 29.1304 142.435 29.2942 142.32 29.4917C137.775 38.4377 123.451 49.7375 110.166 51.6473C109.915 51.6694 109.677 51.7734 109.49 51.9437C109.303 52.114 109.176 52.341 109.129 52.5903C109.118 52.6971 109.13 52.8051 109.164 52.9069C109.198 53.0087 109.253 53.102 109.326 53.1803C109.418 53.2744 109.529 53.3482 109.65 53.397C109.772 53.4459 109.903 53.4687 110.034 53.464H110.059C110.111 53.4627 110.162 53.4583 110.214 53.451C112.152 53.1638 114.065 52.7232 115.935 52.1334C121.334 50.379 126.415 47.7611 130.984 44.3805C136.932 40.0433 141.894 34.6777 144.256 30.0276C144.317 29.9127 144.349 29.7844 144.349 29.6541C144.349 29.5238 144.317 29.3955 144.256 29.2806C144.185 29.1566 144.084 29.0522 143.963 28.9768C143.842 28.9014 143.704 28.8574 143.562 28.8486Z" fill="#0C234B"/>
<path d="M144.728 29.024C144.614 28.8233 144.453 28.654 144.259 28.5312C144.064 28.4084 143.842 28.3359 143.613 28.3202C143.558 28.3143 143.502 28.3114 143.446 28.3116C143.12 28.3108 142.799 28.3976 142.517 28.563C142.236 28.7284 142.003 28.9664 141.843 29.2524C137.359 38.0783 123.216 49.2308 110.091 51.1222C109.719 51.1588 109.371 51.319 109.1 51.5774C108.83 51.8357 108.653 52.1773 108.598 52.5481C108.58 52.7297 108.6 52.9131 108.659 53.086C108.717 53.2589 108.811 53.4173 108.935 53.5506C109.077 53.699 109.247 53.8161 109.437 53.8944C109.626 53.9727 109.829 54.0104 110.033 54.0053H110.071C110.143 54.0038 110.215 53.998 110.287 53.988C112.255 53.6966 114.196 53.2499 116.094 52.652C121.549 50.8801 126.684 48.2354 131.3 44.82C137.313 40.4352 142.335 34.9981 144.733 30.2766C144.835 30.0836 144.888 29.8682 144.887 29.6496C144.886 29.431 144.832 29.2161 144.728 29.024ZM110.035 53.4662C109.904 53.4708 109.773 53.448 109.651 53.3992C109.53 53.3503 109.419 53.2765 109.327 53.1825C109.254 53.1041 109.199 53.0109 109.165 52.9091C109.131 52.8072 109.119 52.6993 109.13 52.5924C109.177 52.3432 109.304 52.1161 109.491 51.9459C109.678 51.7756 109.916 51.6715 110.167 51.6494C123.452 49.7385 137.776 38.441 142.321 29.4938C142.436 29.2964 142.6 29.1326 142.797 29.0186C142.995 28.9047 143.219 28.8445 143.446 28.8442C143.485 28.8443 143.524 28.8464 143.563 28.8507C143.706 28.8591 143.844 28.9031 143.966 28.9787C144.088 29.0543 144.189 29.1592 144.26 29.2838C144.321 29.3988 144.353 29.527 144.353 29.6573C144.353 29.7876 144.321 29.9159 144.26 30.0308C141.898 34.6863 136.937 40.0466 130.988 44.3837C126.419 47.765 121.336 50.3833 115.936 52.1377C114.066 52.7275 112.153 53.1681 110.215 53.4553C110.163 53.4626 110.112 53.467 110.06 53.4683L110.035 53.4662Z" fill="white"/>
<path d="M144.303 38.9498C144.074 38.9508 143.848 39.0124 143.65 39.1285C141.089 40.6171 135.31 42.4414 129.6 43.5674C125.763 44.3598 121.86 44.7828 117.943 44.8308C115.924 44.8585 113.907 44.6669 111.929 44.2592C111.855 44.2423 111.779 44.2339 111.703 44.2343C111.494 44.2392 111.289 44.291 111.102 44.386C110.916 44.481 110.753 44.6167 110.625 44.7832C110.537 44.8958 110.478 45.0291 110.454 45.1707C110.431 45.3123 110.443 45.4576 110.49 45.593C110.54 45.7158 110.619 45.8242 110.721 45.9083C110.823 45.9923 110.944 46.0492 111.074 46.0737C113.191 46.514 115.35 46.7224 117.513 46.6952C121.599 46.6358 125.671 46.1962 129.676 45.3819C133.956 44.5748 138.15 43.367 142.206 41.7745C143.025 41.4405 143.823 41.054 144.593 40.6171C144.733 40.5429 144.856 40.4401 144.955 40.3154C145.053 40.1907 145.124 40.0468 145.164 39.8928C145.189 39.79 145.191 39.6831 145.172 39.5791C145.152 39.4752 145.111 39.3766 145.051 39.2898C144.963 39.1764 144.849 39.0862 144.719 39.027C144.589 38.9678 144.446 38.9413 144.303 38.9498Z" fill="#0C234B"/>
<path d="M145.486 38.9802C145.35 38.7974 145.171 38.6505 144.966 38.5519C144.761 38.4533 144.535 38.406 144.308 38.4139C143.984 38.4147 143.666 38.5018 143.386 38.6662C140.873 40.1278 135.162 41.9261 129.502 43.0391C125.699 43.8248 121.83 44.2446 117.948 44.2928C115.968 44.3206 113.99 44.1333 112.051 43.7341C111.938 43.7091 111.823 43.6968 111.708 43.6973C111.413 43.7009 111.124 43.7723 110.861 43.9059C110.599 44.0395 110.37 44.2319 110.193 44.4682C110.052 44.6528 109.96 44.8704 109.925 45.1006C109.89 45.3307 109.913 45.5661 109.993 45.7847C110.073 45.9916 110.204 46.1747 110.374 46.3169C110.543 46.4591 110.746 46.5557 110.963 46.5978C113.118 47.0467 115.316 47.2595 117.516 47.2322C121.637 47.1738 125.743 46.7316 129.783 45.9114C134.097 45.0974 138.327 43.8788 142.415 42.2715C143.257 41.9278 144.075 41.53 144.866 41.0805C145.07 40.9687 145.249 40.8154 145.391 40.6303C145.533 40.4452 145.635 40.2324 145.691 40.0055C145.729 39.8296 145.731 39.6477 145.696 39.4712C145.66 39.2947 145.589 39.1275 145.486 38.9802ZM117.512 46.6941C115.35 46.7214 113.191 46.513 111.073 46.0727C110.943 46.0481 110.822 45.9912 110.72 45.9072C110.618 45.8232 110.539 45.7148 110.49 45.592C110.442 45.4566 110.43 45.3113 110.454 45.1697C110.477 45.0281 110.536 44.8948 110.625 44.7822C110.752 44.6157 110.915 44.48 111.102 44.385C111.288 44.29 111.493 44.2382 111.702 44.2333C111.779 44.2329 111.854 44.2412 111.929 44.2582C113.907 44.6658 115.923 44.8575 117.942 44.8298C121.86 44.7817 125.765 44.3583 129.604 43.5653C135.316 42.4425 141.093 40.6183 143.654 39.1263C143.852 39.0103 144.077 38.9487 144.307 38.9477C144.449 38.94 144.591 38.967 144.72 39.0264C144.85 39.0858 144.963 39.1758 145.05 39.2887C145.111 39.3755 145.152 39.4741 145.171 39.5781C145.191 39.682 145.188 39.7889 145.164 39.8918C145.124 40.0457 145.052 40.1897 144.954 40.3144C144.856 40.4391 144.732 40.5418 144.592 40.6161C143.822 41.0529 143.025 41.4395 142.205 41.7735C138.15 43.366 133.955 44.5737 129.676 45.3809C125.67 46.1951 121.598 46.6348 117.512 46.6941Z" fill="white"/>
<path d="M42.4143 33.4744L42.3397 37.6701L46.4133 37.7443L46.488 33.5486L42.4143 33.4744Z" fill="#0C234B"/>
<path d="M42.3098 39.6769L42.2347 43.8727L46.3083 43.9472L46.3834 39.7515L42.3098 39.6769Z" fill="#E4151A"/>
<path d="M42.3091 39.6781L42.2347 43.8739L46.3083 43.9477L46.3827 39.752L42.3091 39.6781Z" fill="#E4151A"/>
<path d="M27.4749 38.2952L25.5806 42.0367L29.2122 43.8918L31.1065 40.1504L27.4749 38.2952Z" fill="#E4151A"/>
<path d="M27.4742 38.2959L25.5806 42.0377L29.2126 43.8922L31.1062 40.1504L27.4742 38.2959Z" fill="#E4151A"/>
<path d="M36.4643 34.6415L35.4777 38.7192L39.4368 39.6856L40.4234 35.6079L36.4643 34.6415Z" fill="white"/>
<path d="M36.4636 34.6413L35.4777 38.7192L39.437 39.685L40.4228 35.6071L36.4636 34.6413Z" fill="white"/>
<path d="M28.7041 42.2645L28.629 46.4613L32.7015 46.5359L32.7767 42.3391L28.7041 42.2645Z" fill="#0C234B"/>
<path d="M28.7039 42.2645L28.629 46.4613L32.7015 46.5357L32.7765 42.3389L28.7039 42.2645Z" fill="#0C234B"/>
<path d="M37.3004 44.5675L37.2258 48.7644L41.3005 48.8384L41.3752 44.6416L37.3004 44.5675Z" fill="white"/>
<path d="M48.7218 34.3407L46.7997 38.0666L50.4173 39.9494L52.3393 36.2235L48.7218 34.3407Z" fill="#E4151A"/>
<path d="M48.7215 34.339L46.7997 38.0654L50.4177 39.948L52.3395 36.2216L48.7215 34.339Z" fill="#E4151A"/>
</svg>
