<svg width="16" height="17" viewBox="0 0 16 17" fill="none" xmlns="http://www.w3.org/2000/svg">
<g clip-path="url(#clip0_171_3330)">
<path d="M15.9334 8.09598C15.6715 6.08 14.6519 4.23934 13.0818 2.94798C11.5118 1.65661 9.50893 1.01143 7.48031 1.1435C5.45168 1.27557 3.54942 2.175 2.16003 3.65903C0.770639 5.14307 -0.00166083 7.10039 4.51342e-05 9.13331C-0.00363042 10.2184 0.217224 11.2925 0.648724 12.2882C1.08022 13.2838 1.71304 14.1794 2.50738 14.9186C3.15569 15.517 4.00855 15.8443 4.89071 15.8333H11.1054C12.0339 15.8358 12.9263 15.4738 13.5907 14.8253C14.4803 13.9651 15.1557 12.9081 15.5626 11.7393C15.9695 10.5706 16.0965 9.32272 15.9334 8.09598ZM12.1954 13.392C11.9038 13.6761 11.5125 13.8345 11.1054 13.8333H4.89071C4.51829 13.8412 4.15655 13.7086 3.87738 13.462C3.28287 12.9089 2.80919 12.2389 2.48611 11.4939C2.16304 10.749 1.99755 9.94529 2.00005 9.13331C2.00481 7.54793 2.63845 6.02922 3.76186 4.91055C4.88527 3.79189 6.40666 3.1647 7.99205 3.16665C8.22816 3.16677 8.46409 3.18013 8.69871 3.20665C10.0199 3.36112 11.2524 3.94987 12.2028 4.8805C13.1533 5.81114 13.7678 7.031 13.95 8.34865C14.0721 9.26788 13.977 10.2029 13.6724 11.0788C13.3678 11.9546 12.8622 12.7469 12.196 13.392H12.1954ZM6.03538 10.8233C6.21484 11.0186 6.30938 11.2772 6.29819 11.5422C6.287 11.8072 6.171 12.0568 5.97571 12.2363C5.78042 12.4158 5.52184 12.5103 5.25685 12.4991C4.99187 12.4879 4.74218 12.3719 4.56271 12.1766C3.77125 11.3176 3.33234 10.192 3.33338 9.02398C3.34058 7.8743 3.7832 6.77007 4.57206 5.9337C5.36092 5.09734 6.43742 4.59099 7.58471 4.51665C7.84913 4.4949 8.11136 4.57908 8.31371 4.75068C8.51607 4.92227 8.64196 5.16722 8.66371 5.43165C8.68546 5.69607 8.60128 5.9583 8.42968 6.16065C8.25808 6.363 8.01313 6.4889 7.74871 6.51065C7.10038 6.53924 6.48791 6.81619 6.03823 7.28411C5.58856 7.75202 5.33617 8.37502 5.33338 9.02398C5.33296 9.69066 5.58358 10.3331 6.03538 10.8233ZM12.6274 9.62865C12.5048 10.5811 12.0889 11.4718 11.4374 12.1773C11.2577 12.3726 11.0079 12.4885 10.7428 12.4996C10.4776 12.5107 10.219 12.416 10.0237 12.2363C9.82842 12.0567 9.7125 11.8068 9.70143 11.5417C9.69037 11.2766 9.78507 11.0179 9.96471 10.8226C10.3366 10.4212 10.5743 9.91398 10.6447 9.37131C10.6851 9.11384 10.8244 8.8823 11.033 8.72602C11.2415 8.56973 11.5029 8.50105 11.7613 8.53459C12.0198 8.56814 12.2549 8.70126 12.4167 8.90561C12.5785 9.10996 12.6541 9.36939 12.6274 9.62865ZM9.32405 9.25665C9.30802 9.51276 9.21843 9.75881 9.06602 9.96527C8.91361 10.1717 8.70486 10.3298 8.46483 10.4206C8.22479 10.5113 7.96367 10.5309 7.7128 10.4769C7.46192 10.4229 7.23196 10.2976 7.05051 10.1162C6.86905 9.93473 6.74381 9.70477 6.68982 9.4539C6.63584 9.20302 6.65539 8.9419 6.74614 8.70187C6.83688 8.46183 6.99497 8.25308 7.20143 8.10067C7.40788 7.94827 7.65393 7.85867 7.91005 7.84265L9.62605 6.12598C9.81364 5.93838 10.0681 5.83299 10.3334 5.83299C10.5987 5.83299 10.8531 5.93838 11.0407 6.12598C11.2283 6.31358 11.3337 6.56801 11.3337 6.83331C11.3337 7.09861 11.2283 7.35305 11.0407 7.54065L9.32405 9.25665Z" fill="#2D3142"/>
</g>
<defs>
<clipPath id="clip0_171_3330">
<rect width="16" height="16" fill="white" transform="translate(0 0.5)"/>
</clipPath>
</defs>
</svg>
