<svg width="72" height="51" viewBox="0 0 72 51" fill="none" xmlns="http://www.w3.org/2000/svg">
<path d="M59.6412 15.2603L59.6428 15.2654C59.7477 14.9845 59.9794 14.7582 60.2858 14.6756L65.8283 13.1804C66.3917 13.0285 66.9585 13.4124 67.0259 13.9921L67.4001 17.2031C67.455 17.6732 67.1571 18.1126 66.7003 18.2359L59.7897 20.0958C59.2629 20.2376 58.709 19.9902 58.4631 19.5034C58.3188 19.2178 58.3002 18.8852 58.4111 18.5851L59.6412 15.2603Z" fill="#377DE2"/>
<path d="M7.78217 15.2603L7.78059 15.2654C7.67562 14.9845 7.44392 14.7582 7.13751 14.6756L1.59501 13.1804C1.03168 13.0285 0.464885 13.4124 0.397424 13.9921L0.023238 17.2031C-0.0316133 17.6732 0.266286 18.1126 0.723065 18.2359L7.63369 20.0958C8.16045 20.2376 8.71432 19.9902 8.96021 19.5034C9.10459 19.2178 9.12319 18.8852 9.01222 18.5851L7.78217 15.2603Z" fill="#377DE2"/>
<path d="M12.9524 51H4.1869C2.47831 51 1.09348 49.6149 1.09348 47.9063V33.0693C1.09348 31.3607 2.47863 29.9756 4.1869 29.9756H12.9521C14.6607 29.9756 16.0458 31.3607 16.0458 33.0693V47.9063C16.0458 49.6149 14.661 51 12.9524 51Z" fill="#58595B"/>
<path d="M63.2366 51H54.4715C52.7629 51 51.3777 49.6149 51.3777 47.9063V33.0693C51.3777 31.3607 52.7629 29.9756 54.4715 29.9756H63.2366C64.9452 29.9756 66.3301 31.3607 66.3301 33.0693V47.9063C66.3301 49.6149 64.9449 51 63.2366 51Z" fill="#58595B"/>
<path d="M62.2284 46.9615H5.19511C3.79735 46.9615 2.61395 45.9297 2.42386 44.5452L0.0630483 27.3736C-0.485464 23.384 2.61489 19.8281 6.64205 19.8281H60.7815C64.8086 19.8281 67.909 23.3837 67.3605 27.3736L64.9997 44.5452C64.8096 45.9297 63.6262 46.9615 62.2284 46.9615Z" fill="#478CF7"/>
<path d="M1.93604 27.7453C1.62396 27.7453 1.35569 27.512 1.31187 27.2031C1.21415 26.3797 2.42371 26.2117 2.56021 27.0266L2.56337 27.0297C2.6179 27.4004 2.3137 27.7551 1.93604 27.7453ZM2.25443 25.2739C2.17247 25.2739 2.09019 25.2581 2.01485 25.2266C1.85723 25.1604 1.73713 25.0406 1.6744 24.883C1.6082 24.7285 1.6082 24.5583 1.6744 24.4007C1.89821 23.8648 2.20399 23.3698 2.58543 22.9316C3.60995 21.7621 5.08841 21.0875 6.64253 21.0875L48.3106 21.0907C48.32 21.0875 48.3298 21.0875 48.3389 21.0875H50.8608C51.2079 21.0875 51.4913 21.3712 51.4913 21.718C51.4913 22.0679 51.2079 22.3485 50.8608 22.3485H6.64253C5.45094 22.3485 4.31924 22.8655 3.53745 23.7607C3.24396 24.098 3.00753 24.4763 2.83731 24.8861V24.8893C2.73675 25.1225 2.50977 25.2739 2.25443 25.2739Z" fill="#5E9CF7"/>
<path d="M1.12303 35.0859L2.42338 44.5452C2.61379 45.93 3.79687 46.9615 5.19463 46.9615H62.228C63.6257 46.9615 64.8091 45.9297 64.9992 44.5452L66.2996 35.0859H1.12303Z" fill="#2266D3"/>
<path d="M50.8918 3.87902H16.5316C14.4549 3.87902 12.5987 5.17496 11.8832 7.1247L7.22238 19.8275H60.2008L55.54 7.1247C54.8248 5.17527 52.9686 3.87902 50.8918 3.87902Z" fill="#478CF7"/>
<path d="M18.6218 31.6044H6.03781C5.43539 31.6044 4.92597 31.159 4.84527 30.5622L4.59087 28.6796C4.49315 27.9574 5.0549 27.315 5.78341 27.315H18.3674C18.9698 27.315 19.4792 27.7604 19.5599 28.3572L19.8143 30.2398C19.912 30.962 19.3506 31.6044 18.6218 31.6044Z" fill="#E6E7E8"/>
<path d="M19.8146 30.2401L19.5602 28.3575C19.4795 27.7604 18.9701 27.3153 18.3677 27.3153H18.0562L18.2384 28.6639C18.3361 29.3861 17.7747 30.0285 17.0459 30.0285H4.77338L4.84557 30.5625C4.92627 31.1596 5.43569 31.6047 6.03811 31.6047H18.6221C19.3509 31.6044 19.9123 30.962 19.8146 30.2401Z" fill="#D1D3D4"/>
<path d="M48.8015 31.6044H61.3854C61.9878 31.6044 62.4972 31.159 62.5779 30.5622L62.8323 28.6796C62.9301 27.9574 62.3683 27.315 61.6398 27.315H49.0559C48.4534 27.315 47.944 27.7604 47.8633 28.3572L47.6089 30.2398C47.5112 30.962 48.0726 31.6044 48.8015 31.6044Z" fill="#E6E7E8"/>
<path d="M61.6401 27.315H61.2278L61.0021 28.9861C60.9214 29.5831 60.412 30.0282 59.8095 30.0282H47.6376L47.6089 30.2398C47.5112 30.962 48.0729 31.6044 48.8015 31.6044H61.3854C61.9878 31.6044 62.4972 31.159 62.5779 30.5622L62.8323 28.6796C62.9304 27.9578 62.3689 27.315 61.6401 27.315Z" fill="#D1D3D4"/>
<path d="M56.5926 19.8275H10.8309L14.6745 8.51112C15.0847 7.30439 16.0323 6.52134 17.0823 6.52134H50.3417C51.3918 6.52134 52.3391 7.30471 52.7492 8.51112L56.5926 19.8275Z" fill="#F1F2F2"/>
<path d="M52.7487 8.51112C52.3383 7.30439 51.391 6.52134 50.3412 6.52134H49.9913L53.44 16.6754H11.9012L10.8304 19.8278H56.5924L52.7487 8.51112Z" fill="#E6E7E8"/>
<path d="M52.7489 8.51112C52.4352 7.58905 51.8082 6.91444 51.0611 6.64744C51.1018 6.74043 51.139 6.83627 51.1727 6.93494L55.0164 18.2513H11.3661L10.8309 19.8275H56.5929L52.7489 8.51112Z" fill="#D1D3D4"/>
<path d="M44.5038 43.822H22.9201C21.8486 43.822 21.1662 42.6771 21.6759 41.7346L23.1726 38.9668C23.4198 38.5097 23.8974 38.225 24.4169 38.225H43.007C43.5266 38.225 44.0041 38.5097 44.2513 38.9668L45.748 41.7346C46.2578 42.6771 45.5753 43.822 44.5038 43.822Z" fill="#5E9CF7"/>
<path d="M45.748 41.7345L44.2513 38.9668C44.0237 38.5459 43.6006 38.2714 43.1293 38.2304L44.1718 40.158C44.6816 41.1006 43.9991 42.2455 42.9276 42.2455H21.5129C21.4196 43.0456 22.0381 43.8217 22.9201 43.8217H44.5035C45.5753 43.822 46.2578 42.6771 45.748 41.7345Z" fill="#478CF7"/>
<path d="M14.8905 40.4878H7.28885C6.66405 40.4878 6.15747 39.9812 6.15747 39.3564C6.15747 38.7316 6.66405 38.225 7.28885 38.225H14.8905C15.5153 38.225 16.0219 38.7316 16.0219 39.3564C16.0219 39.9812 15.5153 40.4878 14.8905 40.4878Z" fill="#5E9CF7"/>
<path d="M60.1344 40.4878H52.5328C51.908 40.4878 51.4014 39.9812 51.4014 39.3564C51.4014 38.7316 51.908 38.225 52.5328 38.225H60.1344C60.7592 38.225 61.2658 38.7316 61.2658 39.3564C61.2658 39.9812 60.7592 40.4878 60.1344 40.4878Z" fill="#5E9CF7"/>
<path d="M52.9125 0.434081C52.1733 2.04242 50.8751 3.34057 49.2668 4.0798C48.688 4.34586 48.688 5.16106 49.2668 5.42712C50.8751 6.16635 52.1733 7.4645 52.9125 9.07284C53.1785 9.65161 53.9937 9.65161 54.2598 9.07284C54.999 7.4645 56.2972 6.16635 57.9055 5.42712C58.4843 5.16106 58.4843 4.34586 57.9055 4.0798C56.2972 3.34057 54.999 2.04242 54.2598 0.434081C53.9937 -0.144694 53.1785 -0.144694 52.9125 0.434081Z" fill="#FFA91A"/>
<path d="M57.9054 4.0798C57.4915 3.8894 57.0978 3.66211 56.7293 3.40173C56.6709 3.58835 56.5376 3.75511 56.3292 3.85094C54.7209 4.59017 53.4227 5.88832 52.6835 7.49666C52.5877 7.70503 52.4209 7.83806 52.2343 7.89669C52.4944 8.26552 52.722 8.65894 52.9124 9.07284C53.1784 9.65162 53.9936 9.65162 54.2597 9.07284C54.9989 7.4645 56.2971 6.16636 57.9054 5.42713C58.4842 5.16107 58.4842 4.34586 57.9054 4.0798Z" fill="#F79219"/>
<path d="M42.1708 15.5081C41.4315 17.1164 40.1334 18.4146 38.5251 19.1538C37.9463 19.4199 37.9463 20.2351 38.5251 20.5011C40.1334 21.2403 41.4315 22.5385 42.1708 24.1468C42.4368 24.7256 43.252 24.7256 43.5181 24.1468C44.2573 22.5385 45.5555 21.2403 47.1638 20.5011C47.7426 20.2351 47.7426 19.4199 47.1638 19.1538C45.5555 18.4146 44.2573 17.1164 43.5181 15.5081C43.252 14.9293 42.4368 14.9293 42.1708 15.5081Z" fill="#FFA91A"/>
<path d="M47.1637 19.1538C46.7495 18.9634 46.3561 18.7361 45.9875 18.4757C45.9292 18.6623 45.7959 18.8291 45.5875 18.9249C43.9792 19.6642 42.681 20.9623 41.9418 22.5707C41.846 22.779 41.6792 22.9121 41.4926 22.9707C41.7527 23.3395 41.9803 23.7329 42.1707 24.1468C42.4367 24.7256 43.2519 24.7256 43.518 24.1468C44.2572 22.5385 45.5554 21.2404 47.1637 20.5011C47.7428 20.2351 47.7428 19.4199 47.1637 19.1538Z" fill="#F79219"/>
<path d="M66.2869 20.5695C65.5477 22.1779 64.2495 23.476 62.6412 24.2152C62.0624 24.4813 62.0624 25.2965 62.6412 25.5626C64.2495 26.3018 65.5477 27.5999 66.2869 29.2083C66.553 29.7871 67.3682 29.7871 67.6342 29.2083C68.3735 27.5999 69.6716 26.3018 71.2799 25.5626C71.8587 25.2965 71.8587 24.4813 71.2799 24.2152C69.6716 23.476 68.3735 22.1779 67.6342 20.5695C67.3682 19.9904 66.553 19.9904 66.2869 20.5695Z" fill="#FFA91A"/>
<path d="M71.2798 24.2153C70.8659 24.0249 70.4722 23.7976 70.1037 23.5372C70.0454 23.7238 69.912 23.8906 69.7036 23.9864C68.0953 24.7256 66.7972 26.0238 66.0579 27.6321C65.9624 27.8405 65.7953 27.9735 65.6087 28.0322C65.8688 28.401 66.0964 28.7944 66.2868 29.2083C66.5528 29.7871 67.368 29.7871 67.6341 29.2083C68.3733 27.6 69.6715 26.3018 71.2798 25.5626C71.8586 25.2965 71.8586 24.4813 71.2798 24.2153Z" fill="#F79219"/>
</svg>
