<svg width="39" height="40" viewBox="0 0 39 40" fill="none" xmlns="http://www.w3.org/2000/svg">
<g filter="url(#filter0_d_106_18793)">
<path d="M17.5583 24.8618C13.0422 23.8175 9.67639 19.7693 9.67639 14.9367C9.67639 9.31074 14.2371 4.75 19.8631 4.75C25.4891 4.75 30.0498 9.31074 30.0498 14.9367C30.0498 19.7813 26.6672 23.8377 22.1342 24.8695C21.7115 24.9657 21.3523 25.2825 21.1145 25.5176C20.8455 25.7835 20.5774 26.1072 20.3441 26.3972C20.275 26.4831 20.2096 26.5652 20.1476 26.6431C20.0432 26.7741 19.9481 26.8934 19.8604 26.9996C19.7708 26.8927 19.6737 26.7726 19.5671 26.6405C19.5033 26.5615 19.436 26.4783 19.3649 26.3911C19.1277 26.1003 18.8554 25.7762 18.5826 25.5097C18.3402 25.2729 17.9792 24.9591 17.5583 24.8618Z" fill="#0F92E8" stroke="white" stroke-width="1.5"/>
<path d="M18.3098 20.8C17.8922 20.8 17.5695 20.679 17.3417 20.437C17.1139 20.1849 17 19.837 17 19.3933V11.4067C17 10.9529 17.1139 10.605 17.3417 10.363C17.579 10.121 17.9064 10 18.3241 10H21.8264C22.9654 10 23.8434 10.3126 24.4603 10.9378C25.0868 11.5529 25.4 12.405 25.4 13.4941C25.4 14.5832 25.0868 15.4403 24.4603 16.0655C23.8434 16.6807 22.9654 16.9882 21.8264 16.9882H19.6197V19.3933C19.6197 19.837 19.5105 20.1849 19.2922 20.437C19.0739 20.679 18.7464 20.8 18.3098 20.8ZM19.6197 14.8555H21.3708C21.8644 14.8555 22.2441 14.7445 22.5098 14.5227C22.7756 14.2908 22.9085 13.9479 22.9085 13.4941C22.9085 13.0303 22.7756 12.6874 22.5098 12.4655C22.2441 12.2437 21.8644 12.1328 21.3708 12.1328H19.6197V14.8555Z" fill="white"/>
</g>
<defs>
<filter id="filter0_d_106_18793" x="0" y="0" width="40" height="40" filterUnits="userSpaceOnUse" color-interpolation-filters="sRGB">
<feFlood flood-opacity="0" result="BackgroundImageFix"/>
<feColorMatrix in="SourceAlpha" type="matrix" values="0 0 0 0 0 0 0 0 0 0 0 0 0 0 0 0 0 0 127 0" result="hardAlpha"/>
<feOffset dy="4"/>
<feGaussianBlur stdDeviation="4"/>
<feComposite in2="hardAlpha" operator="out"/>
<feColorMatrix type="matrix" values="0 0 0 0 0 0 0 0 0 0 0 0 0 0 0 0 0 0 0.16 0"/>
<feBlend mode="normal" in2="BackgroundImageFix" result="effect1_dropShadow_106_18793"/>
<feBlend mode="normal" in="SourceGraphic" in2="effect1_dropShadow_106_18793" result="shape"/>
</filter>
</defs>
</svg>
