<svg width="16" height="33" viewBox="0 0 16 33" fill="none" xmlns="http://www.w3.org/2000/svg">
<g clip-path="url(#clip0_130_29668)">
<path fill-rule="evenodd" clip-rule="evenodd" d="M8.18576 0.759033C13.9523 0.962028 15.7009 1.7582 15.0622 10.2658C14.962 10.5008 14.8616 10.7359 14.7614 10.9706C14.8796 14.8967 14.9978 18.8465 14.7614 22.7486C15.1453 23.1695 14.962 23.7329 15.0622 24.2251C15.2264 25.4926 15.296 27.2819 15.1292 29.0238C14.8501 32.9367 10.7891 32.5787 8.47735 32.6476C5.90128 32.5899 2.42677 33.4335 1.45808 29.0571C1.36337 27.0396 1.33973 25.4257 1.45791 23.2183C1.54703 23.0505 1.63618 22.8831 1.7253 22.7153C1.6177 18.837 1.48645 15.0299 1.6861 10.9383C1.56792 10.6139 1.44973 10.2895 1.33155 9.96547C0.898234 1.58151 2.54485 1.05176 8.18566 0.759033H8.18576Z" fill="url(#paint0_radial_130_29668)"/>
<path fill-rule="evenodd" clip-rule="evenodd" d="M8.18545 0.746643H8.1863C9.62796 0.797392 10.8196 0.885237 11.7858 1.12168C12.7523 1.35819 13.4942 1.74362 14.0355 2.3902C14.5766 3.03663 14.9161 3.94268 15.0804 5.21815C15.2448 6.49358 15.2343 8.13949 15.0746 10.2667L15.0744 10.2687L15.0736 10.2706C15.0099 10.4202 14.946 10.5698 14.8822 10.7193C14.846 10.8039 14.81 10.8884 14.7739 10.9729C14.892 14.8963 15.0101 18.844 14.7741 22.7441C14.966 22.9568 15.0159 23.2048 15.0306 23.4594C15.0355 23.5447 15.0365 23.6313 15.0374 23.7175C15.0379 23.7604 15.0384 23.8031 15.0393 23.8456C15.0422 23.974 15.0496 24.1006 15.0744 24.2226L15.0745 24.223L15.0745 24.2235C15.2388 25.4918 15.3084 27.282 15.1416 29.0248C15.0716 30.0052 14.7646 30.7192 14.3065 31.2392C13.8485 31.7592 13.2402 32.0845 12.5692 32.289C11.4797 32.6211 10.2223 32.6357 9.16986 32.648C8.9267 32.6508 8.69449 32.6535 8.47782 32.6599L8.4775 32.6599L8.47718 32.6599C8.1026 32.6516 7.70963 32.6622 7.30781 32.6731C7.01867 32.681 6.72494 32.6889 6.43018 32.69C5.72672 32.6926 5.01936 32.6559 4.36195 32.4838C3.70434 32.3117 3.09649 32.004 2.59237 31.4647C2.08831 30.9255 1.68869 30.1554 1.44616 29.0597L1.44593 29.0587L1.44588 29.0576C1.35117 27.0399 1.32751 25.4255 1.44572 23.2176L1.44587 23.2149L1.44715 23.2125C1.49121 23.1295 1.53528 23.0467 1.57934 22.9638L1.58207 22.9587C1.62572 22.8766 1.66937 22.7945 1.71301 22.7123C1.70547 22.4405 1.69781 22.1691 1.69016 21.8978C1.58869 18.3009 1.48832 14.7434 1.67378 10.9401C1.55589 10.6165 1.43799 10.2929 1.3201 9.96969L1.31946 9.96794L1.31936 9.96608C1.21102 7.86983 1.23264 6.26376 1.41439 5.02931C1.59615 3.79482 1.93821 2.93084 2.47166 2.31986C3.00522 1.70875 3.72903 1.35215 4.67135 1.12998C5.61341 0.90786 6.77503 0.819837 8.18513 0.74666L8.18545 0.746643ZM8.18591 0.771376C9.62731 0.822126 10.8165 0.90994 11.78 1.1457C12.7432 1.38143 13.4798 1.76483 14.0166 2.40611C14.5536 3.04755 14.892 3.9484 15.056 5.22132C15.22 6.49385 15.2097 8.13716 15.0502 10.2628C14.9867 10.4117 14.9231 10.5607 14.8595 10.7095C14.8231 10.7949 14.7866 10.8803 14.7502 10.9657L14.7491 10.9682L14.7492 10.9709C14.8674 14.8971 14.9856 18.8464 14.7492 22.7478L14.7489 22.753L14.7524 22.7569C14.9415 22.9643 14.9914 23.2069 15.006 23.4608C15.0109 23.5456 15.0118 23.6311 15.0128 23.717C15.0133 23.76 15.0137 23.8031 15.0147 23.8462C15.0176 23.9749 15.025 24.1031 15.0501 24.2271C15.2142 25.4937 15.2837 27.2819 15.117 29.0226L15.117 29.0229C15.0474 29.9988 14.7421 30.7074 14.2881 31.2229C13.8339 31.7384 13.2301 32.0617 12.562 32.2654C11.4763 32.5963 10.2235 32.6109 9.17111 32.6232C8.92762 32.626 8.69487 32.6287 8.47741 32.6352C8.10272 32.6268 7.70843 32.6375 7.30593 32.6484C7.0168 32.6563 6.72345 32.6642 6.43009 32.6653C5.72729 32.6679 5.02246 32.6312 4.36816 32.4599C3.71405 32.2886 3.11063 31.983 2.61033 31.4478C2.11014 30.9127 1.71227 30.1473 1.47043 29.0554C1.37583 27.0396 1.3522 25.4267 1.47017 23.2217C1.51388 23.1394 1.5576 23.0572 1.60132 22.975L1.60405 22.9698C1.64813 22.8869 1.69221 22.8041 1.73628 22.7211L1.73781 22.7182L1.73772 22.7149C1.73015 22.4421 1.72246 22.1696 1.71478 21.8973C1.61328 18.2995 1.51292 14.7421 1.6985 10.9388L1.69863 10.9363L1.69777 10.934C1.5798 10.6102 1.46183 10.2864 1.34386 9.96294C1.23565 7.86811 1.25741 6.26457 1.43875 5.03292C1.62014 3.80095 1.96104 2.9422 2.49018 2.33616C3.0192 1.73025 3.73762 1.37552 4.67698 1.15404C5.61648 0.932531 6.77583 0.844558 8.18591 0.771376Z" fill="black"/>
<path fill-rule="evenodd" clip-rule="evenodd" d="M14.7615 3.9238C13.536 1.47421 10.7393 1.17222 8.07616 1.1051C5.24625 1.22816 3.01792 1.28407 1.5918 4.29281C1.98164 3.15202 1.60283 0.836767 8.10965 0.702271C14.0151 0.814288 14.3714 2.4026 14.7615 3.9238Z" fill="#0D89DB"/>
<path fill-rule="evenodd" clip-rule="evenodd" d="M8.10957 0.68988L8.10981 0.689885C11.063 0.745903 12.6316 1.17098 13.5107 1.77436C14.3756 2.36797 14.5716 3.13312 14.7632 3.88101C14.7666 3.89424 14.7699 3.90747 14.7733 3.92069L14.7504 3.92932C14.1395 2.70818 13.137 2.02208 11.954 1.63274C10.7707 1.24331 9.40752 1.15101 8.0762 1.11744C8.03829 1.11909 8.00048 1.12073 7.96279 1.12236C6.59329 1.18165 5.36944 1.23463 4.31177 1.62839C3.22595 2.03262 2.31465 2.79637 1.60285 4.29809L1.58008 4.28877C1.62791 4.14879 1.66416 3.99089 1.70325 3.8206L1.70484 3.81371C1.74449 3.64101 1.78719 3.45598 1.84786 3.26564C1.96926 2.88471 2.16269 2.48215 2.54827 2.11123C3.31911 1.36967 4.85513 0.75715 8.10933 0.689885L8.10957 0.68988ZM8.10959 0.714609C4.85713 0.781867 3.3292 1.39421 2.56531 2.12908C2.1835 2.49638 1.99186 2.89494 1.87131 3.27317C1.811 3.4624 1.7685 3.64647 1.72884 3.81926L1.72708 3.82691C1.70144 3.93861 1.67686 4.04566 1.6493 4.14605C2.3533 2.73198 3.24555 1.99896 4.3032 1.60521C5.36458 1.21007 6.59191 1.15695 7.95959 1.09775C7.99813 1.09608 8.03679 1.09441 8.07555 1.09273L8.07597 1.09271L8.07639 1.09272C9.40804 1.12628 10.7746 1.21855 11.9617 1.60925C13.1175 1.98964 14.1038 2.65314 14.7223 3.82094C14.5357 3.09476 14.3282 2.36537 13.4968 1.79477C12.6239 1.1957 11.0617 0.770628 8.10959 0.714609Z" fill="black"/>
<path fill-rule="evenodd" clip-rule="evenodd" d="M2.62769 8.42035C5.26839 5.41132 11.1847 5.15419 13.7585 8.45398C13.5802 10.0198 13.4019 11.5856 13.2239 13.1518C10.795 12.6036 6.96187 12.0221 3.22959 13.3196C3.02886 11.6865 2.82832 10.0534 2.62775 8.42035H2.62769Z" fill="black" fill-opacity="0.83065"/>
<path fill-rule="evenodd" clip-rule="evenodd" d="M2.60852 8.44233C2.63645 8.66981 2.66439 8.89728 2.69233 9.12475C2.86416 10.5239 3.036 11.9231 3.20799 13.3223L3.2113 13.3493L3.23688 13.3404C6.96321 12.0449 10.7913 12.6253 13.2192 13.1732L13.243 13.1786L13.2458 13.1543C13.4236 11.5896 13.6017 10.0252 13.7799 8.46088L13.7814 8.44753L13.7759 8.44043C12.4837 6.78372 10.3537 6.02139 8.21803 6.04939C6.0824 6.07739 3.93669 6.89566 2.61138 8.40583L2.57935 8.44233H2.60852ZM2.6508 8.42742C2.67911 8.65795 2.70742 8.88847 2.73573 9.119C2.90649 10.5093 3.07724 11.8996 3.24813 13.29C6.96608 12.0061 10.7794 12.5794 13.2051 13.125C13.3818 11.5699 13.5588 10.0152 13.7359 8.46045C12.4537 6.82228 10.3416 6.0655 8.2186 6.09334C6.09597 6.12117 3.96671 6.93332 2.6508 8.42742Z" fill="black"/>
<path fill-rule="evenodd" clip-rule="evenodd" d="M3.66388 23.9903C6.91746 24.3371 9.93677 24.5494 12.8225 23.8225V28.6209C9.9591 30.5335 6.49379 30.433 3.73054 28.7214C3.70838 27.1444 3.68611 25.5673 3.66382 23.9903H3.66388Z" fill="black" fill-opacity="0.83065"/>
<path fill-rule="evenodd" clip-rule="evenodd" d="M12.8446 23.7943V28.6326L12.8349 28.6391C9.96385 30.5569 6.48929 30.4558 3.71928 28.7401L3.70906 28.7338L3.70889 28.7217C3.68672 27.1447 3.66446 25.5676 3.64216 23.9906L3.64185 23.9683H3.66527L3.66643 23.9684C6.92006 24.3152 9.93585 24.527 12.8174 23.8012L12.8446 23.7943ZM3.68629 24.0147C3.70841 25.5795 3.7305 27.1443 3.75249 28.709C6.50415 30.4083 9.95047 30.5075 12.8008 28.6091V23.8506C9.92643 24.5686 6.92028 24.3589 3.68629 24.0147Z" fill="black"/>
<path fill-rule="evenodd" clip-rule="evenodd" d="M15.0454 10.3162C15.8086 10.6686 15.9369 11.4907 15.6972 11.6753C15.4299 11.6473 15.0287 11.2669 14.7614 11.2056C14.7558 11.1271 14.7502 11.049 14.7446 10.9705C14.8559 10.7579 14.9341 10.5288 15.0454 10.3162Z" fill="url(#paint1_linear_130_29668)" fill-opacity="0.75"/>
<path fill-rule="evenodd" clip-rule="evenodd" d="M15.0455 10.3162L15.0261 10.3059C14.9701 10.413 14.9224 10.5241 14.8751 10.6343L14.875 10.6347C14.8276 10.7452 14.7805 10.8549 14.7253 10.9603L14.7224 10.9658L14.7229 10.9721C14.7256 11.0113 14.7284 11.0505 14.7312 11.0896C14.734 11.1288 14.7368 11.1679 14.7396 11.2071L14.7408 11.2234L14.7566 11.227C14.8202 11.2416 14.8932 11.2756 14.9721 11.3201C15.0404 11.3585 15.1118 11.404 15.1842 11.4502C15.1954 11.4573 15.2065 11.4644 15.2177 11.4715C15.3012 11.5246 15.3856 11.5772 15.466 11.6183C15.5461 11.6593 15.6242 11.6897 15.695 11.6972L15.7037 11.6981L15.7106 11.6927C15.7774 11.6413 15.8157 11.5482 15.8257 11.4366C15.8358 11.3244 15.8177 11.1901 15.7681 11.0512C15.6687 10.7734 15.4419 10.475 15.0546 10.2962L15.0455 10.3162ZM15.7269 11.0661C15.6328 10.8031 15.4196 10.5195 15.0552 10.345C15.0041 10.4447 14.9598 10.548 14.9152 10.652L14.915 10.6524C14.8686 10.7607 14.8218 10.8698 14.767 10.9752C14.7696 11.0123 14.7723 11.0494 14.7749 11.0865L14.7749 11.0865C14.7773 11.1203 14.7797 11.1542 14.7821 11.1881C14.8479 11.2057 14.9197 11.2401 14.9936 11.2817C15.0629 11.3208 15.1355 11.3671 15.2078 11.4132C15.2189 11.4202 15.23 11.4273 15.2411 11.4344C15.3247 11.4875 15.4075 11.5391 15.4858 11.5791C15.5608 11.6174 15.63 11.6443 15.6907 11.6524C15.7401 11.6102 15.773 11.5336 15.7821 11.4326C15.7915 11.3278 15.7747 11.1999 15.7269 11.0661Z" fill="black"/>
<path fill-rule="evenodd" clip-rule="evenodd" d="M1.41668 10.2347C0.638732 10.5532 0.47471 11.3687 0.705917 11.5636C0.974295 11.5474 1.39169 11.1854 1.66154 11.1357C1.67054 11.0575 1.67954 10.9797 1.68854 10.9016C1.58654 10.6844 1.51867 10.452 1.41668 10.2347Z" fill="url(#paint2_linear_130_29668)" fill-opacity="0.75"/>
<path fill-rule="evenodd" clip-rule="evenodd" d="M0.662526 10.9371C0.773961 10.664 1.01358 10.3759 1.40833 10.2144L1.4166 10.2347L1.4364 10.2253C1.48776 10.3347 1.53048 10.4478 1.57284 10.56L1.573 10.5604C1.61551 10.6729 1.65769 10.7845 1.70826 10.8922L1.71092 10.8979L1.7102 10.9041C1.7057 10.9432 1.7012 10.9822 1.69671 11.0211C1.69221 11.0601 1.68771 11.0991 1.68321 11.1382L1.68135 11.1543L1.66542 11.1572C1.60111 11.1691 1.52669 11.1999 1.44591 11.2408C1.37615 11.2762 1.30296 11.3184 1.22871 11.3612C1.21715 11.3679 1.20558 11.3746 1.19398 11.3813C1.10821 11.4306 1.02162 11.4794 0.939481 11.5169C0.857601 11.5542 0.778271 11.5812 0.707146 11.5855L0.698441 11.586L0.691762 11.5804C0.627345 11.5261 0.593205 11.4314 0.588085 11.3195C0.582934 11.207 0.606855 11.0736 0.662526 10.9371ZM1.40562 10.2631C1.0339 10.4213 0.808495 10.6953 0.703043 10.9538C0.649366 11.0854 0.62701 11.2123 0.631822 11.3175C0.636455 11.4187 0.666017 11.4966 0.713415 11.5409C0.774457 11.5355 0.84482 11.5118 0.921371 11.4768C1.00141 11.4403 1.08635 11.3925 1.17221 11.3431C1.18372 11.3365 1.19524 11.3299 1.20677 11.3232C1.28093 11.2804 1.35527 11.2375 1.42618 11.2016C1.50183 11.1633 1.57507 11.132 1.64154 11.1173C1.64539 11.0838 1.64925 11.0505 1.6531 11.0171L1.65321 11.0161C1.65747 10.9792 1.66173 10.9423 1.66599 10.9053C1.61581 10.7976 1.57384 10.6865 1.53221 10.5763L1.53206 10.5759C1.49204 10.47 1.45232 10.3649 1.40562 10.2631Z" fill="black"/>
<path fill-rule="evenodd" clip-rule="evenodd" d="M13.1236 2.17889C12.3046 2.38021 12.4383 2.81643 13.2241 3.48757C13.8647 3.95175 14.2545 4.03007 14.2936 3.31978C14.2377 2.90593 13.2963 2.22363 13.1236 2.17889Z" fill="url(#paint3_radial_130_29668)" fill-opacity="0.75"/>
<path fill-rule="evenodd" clip-rule="evenodd" d="M3.31934 2.14618C4.15163 2.28054 4.05345 2.72616 3.32449 3.45871C2.72321 3.97322 2.34079 4.0828 2.24487 3.37804C2.26717 2.96104 3.15079 2.20472 3.31934 2.14618Z" fill="url(#paint4_radial_130_29668)" fill-opacity="0.75"/>
<path fill-rule="evenodd" clip-rule="evenodd" d="M3.31738 2.1236L3.32281 2.12447C3.53222 2.15828 3.68624 2.21207 3.78685 2.2873C3.8888 2.36353 3.93547 2.4616 3.92924 2.57928C3.92312 2.69505 3.86595 2.82762 3.7664 2.97576C3.6666 3.12429 3.5227 3.29061 3.33998 3.47423L3.33936 3.47486L3.33869 3.47543C3.18793 3.60444 3.05017 3.70869 2.92668 3.78123C2.80356 3.85356 2.69251 3.89565 2.5956 3.89757C2.49694 3.89952 2.41465 3.85974 2.35179 3.77327C2.28991 3.68815 2.24735 3.55861 2.22318 3.38101L2.2229 3.37894L2.22301 3.37686C2.22892 3.26633 2.29127 3.13668 2.38037 3.00549C2.46998 2.87355 2.58877 2.73704 2.71169 2.61223C2.83468 2.48735 2.96227 2.37372 3.06982 2.28753C3.12359 2.24444 3.17253 2.20808 3.21352 2.18054C3.25397 2.15337 3.28822 2.13372 3.31218 2.1254L3.31738 2.1236ZM3.32155 2.1688C3.30306 2.17621 3.27464 2.19237 3.23787 2.21707C3.19818 2.24373 3.15026 2.27932 3.09714 2.32188C2.99091 2.407 2.8646 2.51949 2.74283 2.64313C2.62099 2.76684 2.50415 2.90126 2.41655 3.03025C2.32905 3.15907 2.27276 3.27955 2.26685 3.37716C2.29068 3.55081 2.33179 3.67119 2.38716 3.74736C2.44176 3.82247 2.51064 3.85529 2.59474 3.85362C2.68059 3.85193 2.78388 3.8142 2.90457 3.7433C3.02471 3.67272 3.16002 3.57053 3.30962 3.44255C3.49108 3.26015 3.63261 3.09627 3.73011 2.95118C3.82798 2.80554 3.88002 2.68095 3.88552 2.57695C3.89092 2.47487 3.85165 2.39056 3.7607 2.32255C3.66927 2.25418 3.52528 2.20221 3.32155 2.1688Z" fill="black"/>
<path fill-rule="evenodd" clip-rule="evenodd" d="M2.22672 9.59485C1.9259 14.4493 1.99276 18.9345 2.15987 23.6211C2.29358 24.4488 2.39387 25.3102 2.52755 26.1376C2.93423 24.0964 3.1905 19.7902 2.99551 15.7355C2.82282 13.5543 2.54984 11.6585 2.22672 9.59485Z" fill="black" fill-opacity="0.83065"/>
<path fill-rule="evenodd" clip-rule="evenodd" d="M2.20479 9.59348L2.24827 9.59143C2.57141 11.6552 2.84449 13.5517 3.01725 15.7338L3.01728 15.7341L3.01729 15.7345C3.21233 19.7901 2.9561 24.0983 2.54893 26.1419L2.50586 26.1411C2.43897 25.7271 2.38044 25.3047 2.32196 24.8825L2.32194 24.8824C2.26345 24.4601 2.20498 24.0381 2.13818 23.6246L2.13796 23.6232L2.13791 23.6219C1.97079 18.935 1.90391 14.4489 2.20479 9.59348ZM2.23619 9.79787C1.94964 14.5735 2.01687 18.998 2.18162 23.6189C2.24841 24.0325 2.30686 24.4545 2.36527 24.8761L2.36532 24.8764C2.41806 25.2571 2.47076 25.6375 2.52956 26.0116C2.92201 23.927 3.16469 19.7116 2.97358 15.7369C2.80653 13.6271 2.54563 11.7844 2.23619 9.79787Z" fill="black"/>
<path fill-rule="evenodd" clip-rule="evenodd" d="M14.29 9.21545C14.5908 14.0699 14.5241 18.5551 14.357 23.2417C14.223 24.0694 14.1228 24.9308 13.9892 25.7586C13.5823 23.717 13.3262 19.4108 13.5213 15.3562C13.694 13.1752 13.9669 11.2791 14.29 9.21545Z" fill="black" fill-opacity="0.83065"/>
<path fill-rule="evenodd" clip-rule="evenodd" d="M13.543 15.3575C13.3518 19.3322 13.5944 23.5476 13.987 25.6325C14.0455 25.26 14.098 24.8813 14.1504 24.5024L14.1512 24.4971C14.2096 24.0753 14.2681 23.6532 14.335 23.2395C14.4998 18.6187 14.5669 14.1941 14.2803 9.41848C13.9709 11.4051 13.7101 13.2481 13.543 15.3575ZM14.2899 9.21545L14.2683 9.21204C13.9451 11.2758 13.6721 13.1726 13.4993 15.3544L13.4993 15.3547L13.4993 15.3551C13.3042 19.4107 13.5603 23.7189 13.9676 25.7629L14.0107 25.7621C14.0773 25.3497 14.1355 24.9291 14.1938 24.5087L14.1945 24.5031C14.253 24.0808 14.3115 23.6588 14.3785 23.2452L14.3787 23.2438L14.3788 23.2425C14.5459 18.5556 14.6126 14.0695 14.3117 9.21408L14.2899 9.21545Z" fill="black"/>
<path fill-rule="evenodd" clip-rule="evenodd" d="M6.93335 30.2761L9.65128 30.2523L9.58036 30.5371L7.07488 30.5609L6.93335 30.2761Z" fill="black" fill-opacity="0.58065"/>
<path fill-rule="evenodd" clip-rule="evenodd" d="M9.67944 30.2301L9.59755 30.559L7.06146 30.583L6.91382 30.2859L6.93341 30.2761L6.93322 30.2541L9.67944 30.2301ZM6.96864 30.2977L7.08842 30.5388L9.56328 30.5153L9.62324 30.2745L6.96864 30.2977Z" fill="black"/>
<path fill-rule="evenodd" clip-rule="evenodd" d="M12.2276 30.9644C12.4089 30.6321 13.8425 30.0387 14.1184 30.2523C14.3154 30.8457 13.2833 31.4625 12.8656 31.6049C12.511 31.6049 12.204 31.32 12.2276 30.9644Z" fill="#3EA8ED"/>
<path fill-rule="evenodd" clip-rule="evenodd" d="M12.2493 30.9707C12.2299 31.3084 12.5214 31.581 12.8622 31.5829C13.069 31.5117 13.4265 31.324 13.7084 31.081C13.8501 30.9589 13.9715 30.8238 14.0453 30.6837C14.1178 30.546 14.1438 30.4048 14.0999 30.2659C14.0704 30.2455 14.0249 30.2332 13.9644 30.2299C13.9006 30.2265 13.8231 30.2331 13.736 30.2484C13.5619 30.2788 13.3526 30.3428 13.1457 30.4241C12.9388 30.5053 12.7351 30.6035 12.5722 30.7017C12.4907 30.7509 12.4197 30.7998 12.3637 30.8465C12.3095 30.8917 12.2706 30.9338 12.2493 30.9707ZM13.9667 30.186C14.0344 30.1897 14.0922 30.2042 14.1319 30.2349L14.1372 30.239L14.1393 30.2454C14.191 30.401 14.1615 30.5571 14.084 30.7042C14.0067 30.8511 13.8809 30.9903 13.7369 31.1144C13.4492 31.3624 13.0843 31.5536 12.8728 31.6257L12.8694 31.6268H12.8658C12.5005 31.6268 12.1813 31.3332 12.2059 30.9629L12.2062 30.9581L12.2086 30.9538C12.2332 30.9087 12.2779 30.861 12.3358 30.8127C12.394 30.7642 12.4669 30.7139 12.5496 30.664C12.7151 30.5643 12.921 30.4651 13.1297 30.3832C13.3383 30.3012 13.5505 30.2362 13.7285 30.2051C13.8174 30.1895 13.8985 30.1823 13.9667 30.186Z" fill="black"/>
<path fill-rule="evenodd" clip-rule="evenodd" d="M4.46359 31.0257C4.28233 30.6934 2.84855 30.1004 2.57282 30.314C2.37583 30.907 3.40794 31.5241 3.82549 31.6662C4.17987 31.6662 4.48723 31.3817 4.46359 31.0257Z" fill="#3EA8ED"/>
<path fill-rule="evenodd" clip-rule="evenodd" d="M4.35577 30.874C4.41365 30.9223 4.45834 30.97 4.48296 31.0151L4.46376 31.0257L4.4856 31.0242C4.51021 31.3949 4.19069 31.6882 3.82566 31.6882H3.82206L3.81864 31.687C3.60722 31.6151 3.24235 31.4239 2.95461 31.1759C2.81069 31.0518 2.68489 30.9126 2.60755 30.7657C2.53004 30.6186 2.50057 30.4625 2.55222 30.307L2.55433 30.3007L2.55962 30.2966C2.59927 30.2659 2.65714 30.2513 2.72478 30.2477C2.79298 30.244 2.87409 30.2512 2.96301 30.2667C3.14094 30.2978 3.35315 30.3628 3.56177 30.4447C3.77047 30.5266 3.97644 30.6257 4.1419 30.7254C4.22462 30.7753 4.29756 30.8255 4.35577 30.874ZM4.44222 31.0321C4.42094 30.9951 4.38204 30.9531 4.32779 30.9079C4.27182 30.8612 4.20085 30.8122 4.11936 30.7631C3.95639 30.6649 3.7527 30.5668 3.54583 30.4856C3.33889 30.4044 3.12962 30.3404 2.95551 30.31C2.86841 30.2948 2.79085 30.2881 2.72715 30.2915C2.66661 30.2948 2.62116 30.3072 2.59162 30.3275C2.54773 30.4664 2.57374 30.6076 2.64625 30.7452C2.72007 30.8853 2.84145 31.0204 2.98313 31.1425C3.26503 31.3855 3.62257 31.5732 3.82926 31.6442C4.1698 31.6423 4.46167 31.37 4.44222 31.0321Z" fill="black"/>
<path fill-rule="evenodd" clip-rule="evenodd" d="M12.7374 23.6806C12.6901 20.3106 12.7137 16.7964 13.0924 13.2337L13.2067 13.2459C12.8287 16.8016 12.8051 20.3103 12.8523 23.679L12.7374 23.6806Z" fill="black" fill-opacity="0.64516"/>
<path fill-rule="evenodd" clip-rule="evenodd" d="M3.6501 23.8698C3.63434 20.5331 3.52408 17.2441 3.20117 13.3622L3.29116 13.3547C3.61429 17.2393 3.72463 20.5307 3.7404 23.8694L3.6501 23.8698Z" fill="black" fill-opacity="0.66129"/>
<path fill-rule="evenodd" clip-rule="evenodd" d="M6.15309 31.5811C6.14127 31.7671 6.08216 31.9293 6.01123 32.1033C7.57527 32.19 9.26901 32.2058 10.8803 32.0084C10.7818 31.8818 10.7188 31.7077 10.6912 31.4862C9.24931 31.6365 7.68954 31.6444 6.15309 31.5811Z" fill="#EFEFEF"/>
<path fill-rule="evenodd" clip-rule="evenodd" d="M10.7104 31.4621L10.7131 31.4835C10.7403 31.7025 10.8024 31.8723 10.8977 31.9948L10.9216 32.0254L10.8831 32.0302C9.27 32.2278 7.57482 32.212 6.01019 32.1252L5.97949 32.1235L5.99113 32.095C6.06197 31.9211 6.11983 31.7618 6.1314 31.5797L6.13277 31.5583L6.15415 31.5592C7.69001 31.6224 9.24863 31.6145 10.6891 31.4643L10.7104 31.4621ZM6.17352 31.6039C6.15931 31.7745 6.10651 31.9257 6.04323 32.083C7.58605 32.1675 9.25275 32.1823 10.8406 31.9911C10.755 31.868 10.6993 31.7073 10.6724 31.5102C9.24166 31.6579 7.6962 31.666 6.17352 31.6039Z" fill="black"/>
<path fill-rule="evenodd" clip-rule="evenodd" d="M8.17583 1.33557L8.17774 1.33563C10.3375 1.40047 11.6824 2.12568 12.5172 3.34454C13.3496 4.55996 13.6703 6.26012 13.7984 8.2648L13.7187 8.26994C13.5907 6.26741 13.2707 4.58631 12.4513 3.39C11.6346 2.19748 10.317 1.48054 8.17727 1.4159C6.45632 1.53023 5.12709 2.11722 4.20225 3.23215C3.27616 4.34861 2.75098 5.99988 2.6509 8.25136L2.57104 8.24778C2.67154 5.98703 3.19924 4.31594 4.14083 3.1808C5.08334 2.04457 6.43597 1.45078 8.17392 1.3357L8.17583 1.33557Z" fill="black" fill-opacity="0.46774"/>
<path fill-rule="evenodd" clip-rule="evenodd" d="M12.3324 30.1626C13.2858 29.172 13.8476 27.6841 13.9262 25.8378L13.9796 25.8401C13.9005 27.6955 13.3357 29.1973 12.3707 30.1998C11.4056 31.2026 10.0428 31.703 8.37415 31.5605C6.94316 31.6078 5.54668 31.191 4.46997 30.3088C3.3925 29.426 2.63695 28.0785 2.48682 26.2684L2.53999 26.264C2.68901 28.0606 3.43822 29.3943 4.50371 30.2673C5.56956 31.1406 6.95359 31.5542 8.37396 31.5069L8.37554 31.5068L8.37711 31.507C10.0325 31.6488 11.3794 31.1527 12.3324 30.1626Z" fill="black" fill-opacity="0.52419"/>
</g>
<defs>
<radialGradient id="paint0_radial_130_29668" cx="0" cy="0" r="1" gradientUnits="userSpaceOnUse" gradientTransform="translate(8.24539 16.7188) scale(9.16429 20.9348)">
<stop stop-color="#63C0FD"/>
<stop offset="1" stop-color="#0F92E8"/>
</radialGradient>
<linearGradient id="paint1_linear_130_29668" x1="14.7243" y1="10.9956" x2="15.8271" y2="10.9956" gradientUnits="userSpaceOnUse">
<stop stop-color="#0F92E8"/>
<stop offset="1" stop-color="#43A8EB"/>
</linearGradient>
<linearGradient id="paint2_linear_130_29668" x1="0.588997" y1="10.8994" x2="1.70907" y2="10.8994" gradientUnits="userSpaceOnUse">
<stop stop-color="#43B2FB"/>
<stop offset="1" stop-color="#0F92E8"/>
</linearGradient>
<radialGradient id="paint3_radial_130_29668" cx="0" cy="0" r="1" gradientUnits="userSpaceOnUse" gradientTransform="translate(13.9467 3.18093) scale(3.70161 3.57535)">
<stop stop-color="#6B5635"/>
<stop offset="1" stop-color="white"/>
</radialGradient>
<radialGradient id="paint4_radial_130_29668" cx="0" cy="0" r="1" gradientUnits="userSpaceOnUse" gradientTransform="translate(2.70559 3.0663) scale(2.86546 2.97748)">
<stop stop-color="#6B5635"/>
<stop offset="1" stop-color="white"/>
</radialGradient>
<clipPath id="clip0_130_29668">
<rect width="15.2381" height="32" fill="white" transform="translate(0.588867 0.690063)"/>
</clipPath>
</defs>
</svg>
